<svg xmlns="http://www.w3.org/2000/svg" width="36.644" height="217.649" viewBox="0 0 36.644 217.649">
  <g id="mainDirection" transform="translate(-950 -665.5)">
    <path id="Контур_10946" data-name="Контур 10946" d="M2.2-6.642a1.114,1.114,0,0,0,.54.972,4.254,4.254,0,0,0,1.314.558q.774.2,1.548.441a3.038,3.038,0,0,1,1.314.81,2.064,2.064,0,0,1,.54,1.485A2.277,2.277,0,0,1,6.543-.5a3.669,3.669,0,0,1-2.349.72A4.036,4.036,0,0,1,1.989-.36,3.081,3.081,0,0,1,.72-1.854l1.008-.594a2.108,2.108,0,0,0,.909,1.107,2.908,2.908,0,0,0,1.557.405A2.859,2.859,0,0,0,5.67-1.287a1.176,1.176,0,0,0,.594-1.089,1.114,1.114,0,0,0-.54-.972A4.254,4.254,0,0,0,4.41-3.906q-.774-.2-1.548-.441a3.038,3.038,0,0,1-1.314-.81,2.064,2.064,0,0,1-.54-1.485,2.309,2.309,0,0,1,.873-1.836,3.3,3.3,0,0,1,2.205-.738,3.681,3.681,0,0,1,1.926.495A3.035,3.035,0,0,1,7.236-7.38l-.99.576a2.094,2.094,0,0,0-2.16-1.26A2.359,2.359,0,0,0,2.754-7.7,1.189,1.189,0,0,0,2.2-6.642ZM13.356.216A4.574,4.574,0,0,1,9.972-1.143,4.576,4.576,0,0,1,8.622-4.5a4.576,4.576,0,0,1,1.35-3.357,4.574,4.574,0,0,1,3.384-1.359,4.553,4.553,0,0,1,2.394.639A3.79,3.79,0,0,1,17.3-6.858l-.972.558a2.8,2.8,0,0,0-1.161-1.287,3.467,3.467,0,0,0-1.809-.477,3.411,3.411,0,0,0-2.52,1.035A3.456,3.456,0,0,0,9.81-4.5a3.456,3.456,0,0,0,1.026,2.529,3.411,3.411,0,0,0,2.52,1.035,3.42,3.42,0,0,0,1.8-.477A3.41,3.41,0,0,0,16.4-2.7l.99.576A4.159,4.159,0,0,1,15.75-.414,4.664,4.664,0,0,1,13.356.216Zm6.93-7.722A2.926,2.926,0,0,1,23.13-9.144v1.152a2.949,2.949,0,0,0-2.034.72A2.887,2.887,0,0,0,20.286-5V0H19.1V-9h1.188ZM31.761-1.143A4.6,4.6,0,0,1,28.4.216a4.6,4.6,0,0,1-3.357-1.359A4.53,4.53,0,0,1,23.67-4.5a4.53,4.53,0,0,1,1.377-3.357A4.6,4.6,0,0,1,28.4-9.216a4.6,4.6,0,0,1,3.357,1.359A4.53,4.53,0,0,1,33.138-4.5,4.53,4.53,0,0,1,31.761-1.143Zm-5.877-.828A3.411,3.411,0,0,0,28.4-.936a3.411,3.411,0,0,0,2.52-1.035A3.456,3.456,0,0,0,31.95-4.5a3.456,3.456,0,0,0-1.026-2.529A3.411,3.411,0,0,0,28.4-8.064a3.411,3.411,0,0,0-2.52,1.035A3.456,3.456,0,0,0,24.858-4.5,3.456,3.456,0,0,0,25.884-1.971ZM35.118,0V-13.14h1.188V0Zm3.708,0V-13.14h1.188V0ZM54.585-1.143A4.6,4.6,0,0,1,51.228.216a4.6,4.6,0,0,1-3.357-1.359A4.53,4.53,0,0,1,46.494-4.5a4.53,4.53,0,0,1,1.377-3.357,4.6,4.6,0,0,1,3.357-1.359,4.6,4.6,0,0,1,3.357,1.359A4.53,4.53,0,0,1,55.962-4.5,4.53,4.53,0,0,1,54.585-1.143Zm-5.877-.828a3.411,3.411,0,0,0,2.52,1.035,3.411,3.411,0,0,0,2.52-1.035A3.456,3.456,0,0,0,54.774-4.5a3.456,3.456,0,0,0-1.026-2.529,3.411,3.411,0,0,0-2.52-1.035,3.411,3.411,0,0,0-2.52,1.035A3.456,3.456,0,0,0,47.682-4.5,3.456,3.456,0,0,0,48.708-1.971ZM59.13-7.506a2.926,2.926,0,0,1,2.844-1.638v1.152a2.949,2.949,0,0,0-2.034.72A2.887,2.887,0,0,0,59.13-5V0H57.942V-9H59.13ZM72.288.216A4.574,4.574,0,0,1,68.9-1.143,4.576,4.576,0,0,1,67.554-4.5,4.576,4.576,0,0,1,68.9-7.857a4.574,4.574,0,0,1,3.384-1.359,4.553,4.553,0,0,1,2.394.639A3.79,3.79,0,0,1,76.23-6.858l-.972.558A2.8,2.8,0,0,0,74.1-7.587a3.467,3.467,0,0,0-1.809-.477,3.411,3.411,0,0,0-2.52,1.035A3.456,3.456,0,0,0,68.742-4.5a3.456,3.456,0,0,0,1.026,2.529,3.411,3.411,0,0,0,2.52,1.035,3.42,3.42,0,0,0,1.8-.477A3.411,3.411,0,0,0,75.33-2.7l.99.576a4.159,4.159,0,0,1-1.638,1.71A4.664,4.664,0,0,1,72.288.216ZM78.03,0V-13.14h1.188V0Zm4.914-11.16a.833.833,0,0,1-.612.252.833.833,0,0,1-.612-.252.833.833,0,0,1-.252-.612.833.833,0,0,1,.252-.612.833.833,0,0,1,.612-.252.833.833,0,0,1,.612.252.833.833,0,0,1,.252.612A.833.833,0,0,1,82.944-11.16ZM81.738,0V-9h1.188V0Zm7.9.216a4.574,4.574,0,0,1-3.384-1.359A4.576,4.576,0,0,1,84.906-4.5a4.576,4.576,0,0,1,1.35-3.357A4.574,4.574,0,0,1,89.64-9.216a4.553,4.553,0,0,1,2.394.639,3.79,3.79,0,0,1,1.548,1.719L92.61-6.3a2.8,2.8,0,0,0-1.161-1.287,3.467,3.467,0,0,0-1.809-.477,3.411,3.411,0,0,0-2.52,1.035A3.456,3.456,0,0,0,86.094-4.5,3.456,3.456,0,0,0,87.12-1.971,3.411,3.411,0,0,0,89.64-.936a3.42,3.42,0,0,0,1.8-.477A3.411,3.411,0,0,0,92.682-2.7l.99.576a4.159,4.159,0,0,1-1.638,1.71A4.664,4.664,0,0,1,89.64.216ZM102.654,0H101.07l-4.5-4.338V0H95.382V-12.6H96.57v7.578L100.854-9h1.62L97.83-4.68Zm10.332-9.216a3.385,3.385,0,0,1,2.583,1,3.756,3.756,0,0,1,.945,2.691V0h-1.188V-5.526a2.594,2.594,0,0,0-.639-1.872,2.389,2.389,0,0,0-1.809-.666,2.832,2.832,0,0,0-2.106.819,3.47,3.47,0,0,0-.81,2.529V0h-1.188V-12.6h1.188v5A3.328,3.328,0,0,1,112.986-9.216Zm9.99,0A4.082,4.082,0,0,1,126.207-7.8a4.914,4.914,0,0,1,1.233,3.339q0,.2-.036.558h-7.9a3.228,3.228,0,0,0,1.161,2.169,3.7,3.7,0,0,0,2.421.8,3.54,3.54,0,0,0,1.773-.423,2.854,2.854,0,0,0,1.125-1.107l1.044.612a4.275,4.275,0,0,1-1.62,1.512,4.818,4.818,0,0,1-2.34.558,4.676,4.676,0,0,1-3.456-1.332A4.585,4.585,0,0,1,118.278-4.5a4.634,4.634,0,0,1,1.314-3.366A4.515,4.515,0,0,1,122.976-9.216Zm0,1.152a3.414,3.414,0,0,0-2.349.837A3.4,3.4,0,0,0,119.5-5.058h6.714a3.356,3.356,0,0,0-1.1-2.214A3.178,3.178,0,0,0,122.976-8.064Zm7.542.558a2.926,2.926,0,0,1,2.844-1.638v1.152a2.949,2.949,0,0,0-2.034.72A2.887,2.887,0,0,0,130.518-5V0H129.33V-9h1.188Zm8.082-1.71A4.082,4.082,0,0,1,141.831-7.8a4.914,4.914,0,0,1,1.233,3.339q0,.2-.036.558h-7.9a3.228,3.228,0,0,0,1.161,2.169,3.7,3.7,0,0,0,2.421.8,3.54,3.54,0,0,0,1.773-.423,2.854,2.854,0,0,0,1.125-1.107l1.044.612a4.275,4.275,0,0,1-1.62,1.512,4.818,4.818,0,0,1-2.34.558,4.676,4.676,0,0,1-3.456-1.332A4.585,4.585,0,0,1,133.9-4.5a4.634,4.634,0,0,1,1.314-3.366A4.515,4.515,0,0,1,138.6-9.216Zm0,1.152a3.414,3.414,0,0,0-2.349.837,3.4,3.4,0,0,0-1.125,2.169h6.714a3.356,3.356,0,0,0-1.1-2.214A3.178,3.178,0,0,0,138.6-8.064Z" transform="translate(973.504 681.5) rotate(90)" fill="#8690ae"/>
    <g id="Сгруппировать_3264" data-name="Сгруппировать 3264" transform="translate(0 31)">
      <g id="mouse" transform="translate(950 824.453)">
        <g id="Сгруппировать_3261" data-name="Сгруппировать 3261" transform="translate(0)">
          <g id="Сгруппировать_3260" data-name="Сгруппировать 3260">
            <path id="Контур_10920" data-name="Контур 10920" d="M85.478,0a9.84,9.84,0,0,0-9.752,9.9v7.887a9.753,9.753,0,1,0,19.5.03V9.9A9.84,9.84,0,0,0,85.478,0ZM93.4,17.822a7.919,7.919,0,1,1-15.835-.031V9.9A7.919,7.919,0,1,1,93.4,9.9Z" transform="translate(-75.726)" fill="#5ae6c7"/>
          </g>
        </g>
        <g id="Сгруппировать_3263" data-name="Сгруппировать 3263" transform="translate(8.835 7.581)">
          <g id="Сгруппировать_3262" data-name="Сгруппировать 3262">
            <path id="Контур_10921" data-name="Контур 10921" d="M239.963,140.15a.917.917,0,0,0-.917.917v3.21a.917.917,0,0,0,1.834,0v-3.21A.917.917,0,0,0,239.963,140.15Z" transform="translate(-239.046 -140.15)" fill="#5ae6c7"/>
          </g>
        </g>
      </g>
      <path id="mainLine" d="M0,180V0" transform="translate(959.5 634.5)" fill="none" stroke="#5ae6c7" stroke-width="1"/>
    </g>
  </g>
</svg>
