<svg xmlns="http://www.w3.org/2000/svg" width="29" height="28" viewBox="0 0 29 28">
  <g id="ai" transform="translate(68 86)">
    <path id="Path_11019" data-name="Path 11019" d="M29,28H0V0H29V28ZM.619.613V27.387H28.381V.613ZM27.762,26.774H1.238V1.226H27.762V26.774Zm-6.77-14.23c-.064,0-.093.033-.093.107V19.7c0,.092.031.123.124.123h1.156c.077,0,.108-.031.108-.107V12.636c0-.079-.033-.092-.108-.092ZM9.876,15.318H15.3l1.662,4.374a.158.158,0,0,0,.17.128H18.9A.109.109,0,0,0,19,19.785c.019-.028.017-.072-.007-.134-.77-2.023-1.55-4.089-2.3-6.088v0c-.944-2.5-1.92-5.086-2.88-7.6-.021-.089-.043-.107-.129-.107H11.435a.135.135,0,0,0-.09.031.124.124,0,0,0-.039.1,2.478,2.478,0,0,1-.145.917l0,.013C9.723,10.624,7.6,16.274,6.337,19.651h0a.136.136,0,0,0,0,.126.126.126,0,0,0,.109.042H8.086c.1,0,.148-.037.191-.148l1.6-4.353ZM21.6,8.788A.845.845,0,0,0,21.017,9a.826.826,0,1,0,.583-.213Zm-6.77,4.987H10.351c.257-.735.538-1.514.811-2.268.594-1.643,1.155-3.194,1.388-4.089h.021c.254.849.854,2.483,1.384,3.925h0c.354.963.688,1.872.875,2.429Z" transform="translate(-68 -86)" fill="#5ae6c7"/>
  </g>
</svg>
