<svg xmlns="http://www.w3.org/2000/svg" width="27.001" height="27.001" viewBox="0 0 27.001 27.001">
  <path id="analytic" d="M6.75-11.812a.846.846,0,0,1,.844-.844.846.846,0,0,1,.844.844v3.375a.846.846,0,0,1-.844.844.846.846,0,0,1-.844-.844Zm3.375-5.062a.846.846,0,0,1,.844-.844.846.846,0,0,1,.844.844v8.438a.846.846,0,0,1-.844.844.846.846,0,0,1-.844-.844ZM13.5-13.5a.846.846,0,0,1,.844-.844.846.846,0,0,1,.844.844v5.063a.846.846,0,0,1-.844.844.846.846,0,0,1-.844-.844ZM0-12.656A10.968,10.968,0,0,1,10.969-23.625,10.968,10.968,0,0,1,21.938-12.656a10.8,10.8,0,0,1-2.684,7.135l7.5,7.457A.843.843,0,0,1,25.56,3.127L18.1-4.372a10.8,10.8,0,0,1-7.135,2.684A10.968,10.968,0,0,1,0-12.656ZM10.969-3.375a9.281,9.281,0,0,0,9.281-9.281,9.281,9.281,0,0,0-9.281-9.281,9.281,9.281,0,0,0-9.281,9.281A9.281,9.281,0,0,0,10.969-3.375Z" transform="translate(0 23.625)" fill="#5ae6c7"/>
</svg>
