<svg xmlns="http://www.w3.org/2000/svg" width="29" height="29" viewBox="0 0 29 29">
  <g id="apache" transform="translate(-1306 -1268.509)">
    <path id="Path_11007" data-name="Path 11007" d="M27.458,29H1.542A1.544,1.544,0,0,1,0,27.458V1.542A1.544,1.544,0,0,1,1.542,0H27.458A1.544,1.544,0,0,1,29,1.542V27.458A1.544,1.544,0,0,1,27.458,29ZM10.518,22.44h0c.024.267.048.555.048.88v3.567h.494V24.97a1.111,1.111,0,0,0,1,.628h.052a1.425,1.425,0,0,0,1.386-1.6,1.439,1.439,0,0,0-1.386-1.627h-.052a1.106,1.106,0,0,0-1.021.676l-.048-.6Zm5.136-.074H15.6c-.822,0-1.374.654-1.374,1.627s.539,1.6,1.374,1.6l.07,0a1.09,1.09,0,0,0,.979-.617v.566h.494V22.439h-.494v.543A1.111,1.111,0,0,0,15.654,22.366Zm3.63,0h-.029a1.486,1.486,0,0,0-1.507,1.627,1.449,1.449,0,0,0,1.481,1.6h.02a1.682,1.682,0,0,0,1.1-.41l-.169-.361a1.457,1.457,0,0,1-.9.347c-.643,0-1.012-.43-1.012-1.181a1.365,1.365,0,0,1,.267-.887.936.936,0,0,1,.746-.318,1.406,1.406,0,0,1,.9.362l.169-.373A1.594,1.594,0,0,0,19.284,22.367Zm6.756,0a1.476,1.476,0,0,0-1.458,1.615A1.457,1.457,0,0,0,26.136,25.6h0a1.822,1.822,0,0,0,1.164-.422l-.169-.361a1.573,1.573,0,0,1-1,.361c-.686,0-1.049-.412-1.049-1.193h2.266v-.1C27.354,22.935,26.863,22.367,26.04,22.367Zm-21.38-2.6a1.334,1.334,0,0,1,.293.03c-.588,1.665-1.2,3.552-1.869,5.767a.54.54,0,0,0,.37-.359c.134-.45.86-2.856,2.005-6.047l.093-.26,0-.006,0-.012.01-.028.018-.049c.13-.36.254-.7.38-1.035l.089-.237v0l.107.211.094-.011-.032.088-.033.092c-.12.329-.241.668-.361,1.007l-.005.015-.018.051-.033.094c-.076.217-.142.408-.284.825l-.03.086a1.825,1.825,0,0,1,.683.8,1.452,1.452,0,0,0-.473-1c.094,0,.191.007.288.007A2.96,2.96,0,0,0,8.7,18.556a2.441,2.441,0,0,0,.143-.271,1.18,1.18,0,0,1-1.042.451c-.055,0-.113,0-.175-.005a3.543,3.543,0,0,0,1.778-1.453c.091-.146.184-.312.285-.51a2.864,2.864,0,0,1-2.7.877H6.986l-.016,0h0l-.021,0a5.25,5.25,0,0,0,2.79-1.57,6.94,6.94,0,0,0,.951-1.324A11.413,11.413,0,0,0,11.3,13.47c.168-.408.333-.857.488-1.335a2.651,2.651,0,0,1-.685.238l-.009,0h0c-.04.008-.081.017-.123.024h-.013l.013,0-.112.018.111-.018c.042-.007.091-.016.136-.026l-.136.024H10.96l-.122.021a3.17,3.17,0,0,0,1.7-1.659,2.891,2.891,0,0,1-.981.43l-.013,0-.016,0h0l-.15.025-.029.005a3.341,3.341,0,0,0,.723-.406c.054-.041.093-.073.129-.1.06-.051.119-.108.181-.173.038-.039.074-.08.107-.12a2.785,2.785,0,0,0,.229-.314c.023-.036.046-.074.064-.106s.05-.1.078-.154c.109-.219.2-.426.278-.613.038-.094.069-.175.095-.25l.01-.028.022-.062c.03-.091.053-.166.071-.23a2.2,2.2,0,0,0,.054-.239.82.82,0,0,1-.095.065,3.436,3.436,0,0,1-1.01.344l-.015,0-.079.013.08-.013.016,0-.1.011h0l-2.3.252L9.8,9.106l-.068-.133-.011.021-.009.018c-.118.235-.24.482-.363.734l0,.009,0,0c-.066.136-.134.277-.2.416-.192.4-.381.81-.561,1.207s-.361.807-.546,1.234l-.134.312q.066-.157.134-.315c.176-.4.36-.82.546-1.234s.372-.81.561-1.207c.076-.16.144-.3.207-.43.115-.238.234-.478.363-.734l.012-.024.008-.015c.194-.384.391-.764.588-1.13.211-.394.427-.784.642-1.157s.451-.768.681-1.134l.041-.065c.225-.358.456-.706.687-1.035v0a17.217,17.217,0,0,1,1.482-1.86,15.6,15.6,0,0,0-1.394,1.889,26.2,26.2,0,0,0,2.7-.335,2.888,2.888,0,0,0-.26-2.172c0-.007-.461-.735-1.053-.735a.786.786,0,0,0-.4.116,8.9,8.9,0,0,0-1.772,1.787v0l-.122.151,0,.005-.03.037c-.2.25-.409.52-.622.8-.232.31-.481.655-.741,1.024-.237.339-.473.69-.7,1.041-.206.316-.409.634-.6.946l-.022.036,0,.008c-.013.021-.027.043-.039.065-.22.359-.431.714-.627,1.056-.209.364-.415.737-.613,1.109-.169.318-.335.64-.494.959-.02.043-.041.085-.062.127l-.034.068c-.188.387-.369.782-.536,1.175-.181.422-.343.834-.484,1.222-.088.244-.174.491-.254.736-.059.186-.118.384-.181.6-.134.468-.251.945-.347,1.417l.323.637-.323-.635-.006.03v0l-.006.028A14.041,14.041,0,0,0,4.9,17.508a.349.349,0,0,1,0,.035c0,.008,0,.016,0,.024a3.6,3.6,0,0,0-1.042-.895,4.991,4.991,0,0,1,1.018,2.34c-.069.006-.137.009-.2.009a2.284,2.284,0,0,1-.948-.205,2.318,2.318,0,0,0,.982.6,2.768,2.768,0,0,0-1.365.68A3.688,3.688,0,0,1,4.66,19.767Zm17.881,3.022h.04c.493,0,.723.265.723.833v1.928H23.8V23.6c0-.816-.377-1.229-1.121-1.229h-.052a1.149,1.149,0,0,0-1,.58v-1.94h-.494v4.543h.494V23.777a.914.914,0,0,1,.912-.988ZM7.589,21.15l-1.928,4.4h.53l.482-1.133h2.3l.482,1.133h.518l-1.941-4.4ZM15.158,4.141a26.3,26.3,0,0,1-2.7.334c-.222.341-.447.7-.668,1.073l-.033.055v0l0,.007c-.205.346-.427.733-.659,1.153-.2.365-.412.758-.625,1.17-.186.36-.383.75-.584,1.16l2.3-.252a2.789,2.789,0,0,0,1.259-.99c.072-.1.148-.217.232-.348.229-.357.462-.765.675-1.178a12.3,12.3,0,0,0,.511-1.124,5.965,5.965,0,0,0,.2-.608c.041-.155.074-.3.1-.456Zm1.631-.572h0v.406h.067V3.462h-.088l-.176.358-.177-.358h-.088v.513h.067V3.568l.174.353h.047Zm-.774-.04v.445h.073V3.529h.159V3.462h-.39v.067ZM15.7,25.175a.872.872,0,0,1-.712-.306,1.354,1.354,0,0,1-.252-.875c0-.766.351-1.205.964-1.205s.952.424.952,1.193S16.314,25.175,15.7,25.175Zm-3.675,0c-.613,0-.964-.435-.964-1.193s.342-1.193.964-1.193c.6,0,.952.45.952,1.2S12.629,25.175,12.025,25.175Zm-3.23-1.181H6.855l.964-2.252.976,2.252Zm18.115-.337H25.1a.93.93,0,0,1,.94-.892c.52,0,.82.308.868.892ZM6.058,17.524h0v0c.133-.354.254-.673.37-.974l.106-.275c.156-.4.32-.821.488-1.24.155-.387.316-.781.493-1.205l.194-.461-.194.464c-.17.408-.336.814-.494,1.205-.166.415-.331.832-.488,1.239-.036.093-.072.187-.106.278-.124.323-.248.649-.368.97Z" transform="translate(1306 1268.509)" fill="#5ae6c7"/>
  </g>
</svg>
