<svg xmlns="http://www.w3.org/2000/svg" width="29.218" height="37.412" viewBox="0 0 29.218 37.412">
  <g id="bem" transform="translate(0.486 0.25)">
    <path id="a" d="M162,4.82l4.708,2.825v5.649L162,10.469Zm9.415,0-4.708,2.825v5.649l4.708-2.825ZM168.708,3.2l2.707,1.624-4.708,2.825L162,4.82,164.707,3.2m4,.094c0,.715-.9,1.294-2,1.294s-2-.579-2-1.294.9-1.295,2-1.295,2,.579,2,1.294v1.53c0,.715-.9,1.295-2,1.295s-2-.58-2-1.295V3.29" transform="translate(-143.17 -1.995)" fill="#5ae6c7" stroke="#0c1c33" stroke-width="0.5"/>
    <path id="Path_10929" data-name="Path 10929" d="M162,4.82l4.708,2.825v5.649L162,10.469Zm9.415,0-4.708,2.825v5.649l4.708-2.825ZM168.708,3.2l2.707,1.624-4.708,2.825L162,4.82,164.707,3.2m4,.094c0,.715-.9,1.294-2,1.294s-2-.579-2-1.294.9-1.295,2-1.295,2,.579,2,1.294v1.53c0,.715-.9,1.295-2,1.295s-2-.58-2-1.295V3.29" transform="translate(-147.877 0.83)" fill="#5ae6c7" stroke="#0c1c33" stroke-width="0.5"/>
    <path id="Path_10930" data-name="Path 10930" d="M162,4.82l4.708,2.825v5.649L162,10.469Zm9.415,0-4.708,2.825v5.649l4.708-2.825ZM168.708,3.2l2.707,1.624-4.708,2.825L162,4.82,164.707,3.2m4,.094c0,.715-.9,1.294-2,1.294s-2-.579-2-1.294.9-1.295,2-1.295,2,.579,2,1.294v1.53c0,.715-.9,1.295-2,1.295s-2-.58-2-1.295V3.29" transform="translate(-152.585 3.654)" fill="#5ae6c7" stroke="#0c1c33" stroke-width="0.5"/>
    <path id="Path_10931" data-name="Path 10931" d="M162,4.82l4.708,2.825v5.649L162,10.469Zm9.415,0-4.708,2.825v5.649l4.708-2.825ZM168.708,3.2l2.707,1.624-4.708,2.825L162,4.82,164.707,3.2m4,.094c0,.715-.9,1.294-2,1.294s-2-.579-2-1.294.9-1.295,2-1.295,2,.579,2,1.294v1.53c0,.715-.9,1.295-2,1.295s-2-.58-2-1.295V3.29" transform="translate(-157.293 6.479)" fill="#5ae6c7" stroke="#0c1c33" stroke-width="0.5"/>
    <path id="Path_10932" data-name="Path 10932" d="M162,4.82l4.708,2.825v5.649L162,10.469Zm9.415,0-4.708,2.825v5.649l4.708-2.825ZM168.708,3.2l2.707,1.624-4.708,2.825L162,4.82,164.707,3.2m4,.094c0,.715-.9,1.294-2,1.294s-2-.579-2-1.294.9-1.295,2-1.295,2,.579,2,1.294v1.53c0,.715-.9,1.295-2,1.295s-2-.58-2-1.295V3.29" transform="translate(-147.877 6.479)" fill="#5ae6c7" stroke="#0c1c33" stroke-width="0.5"/>
    <path id="Path_10933" data-name="Path 10933" d="M162,4.82l4.708,2.825v5.649L162,10.469Zm9.415,0-4.708,2.825v5.649l4.708-2.825ZM168.708,3.2l2.707,1.624-4.708,2.825L162,4.82,164.707,3.2m4,.094c0,.715-.9,1.294-2,1.294s-2-.579-2-1.294.9-1.295,2-1.295,2,.579,2,1.294v1.53c0,.715-.9,1.295-2,1.295s-2-.58-2-1.295V3.29" transform="translate(-143.17 9.303)" fill="#5ae6c7" stroke="#0c1c33" stroke-width="0.5"/>
    <path id="Path_10934" data-name="Path 10934" d="M162,4.82l4.708,2.825v5.649L162,10.469Zm9.415,0-4.708,2.825v5.649l4.708-2.825ZM168.708,3.2l2.707,1.624-4.708,2.825L162,4.82,164.707,3.2m4,.094c0,.715-.9,1.294-2,1.294s-2-.579-2-1.294.9-1.295,2-1.295,2,.579,2,1.294v1.53c0,.715-.9,1.295-2,1.295s-2-.58-2-1.295V3.29" transform="translate(-162 9.303)" fill="#5ae6c7" stroke="#0c1c33" stroke-width="0.5"/>
    <path id="Path_10935" data-name="Path 10935" d="M162,4.82l4.708,2.825v5.649L162,10.469Zm9.415,0-4.708,2.825v5.649l4.708-2.825ZM168.708,3.2l2.707,1.624-4.708,2.825L162,4.82,164.707,3.2m4,.094c0,.715-.9,1.294-2,1.294s-2-.579-2-1.294.9-1.295,2-1.295,2,.579,2,1.294v1.53c0,.715-.9,1.295-2,1.295s-2-.58-2-1.295V3.29" transform="translate(-157.293 12.128)" fill="#5ae6c7" stroke="#0c1c33" stroke-width="0.5"/>
    <path id="Path_10936" data-name="Path 10936" d="M162,4.82l4.708,2.825v5.649L162,10.469Zm9.415,0-4.708,2.825v5.649l4.708-2.825ZM168.708,3.2l2.707,1.624-4.708,2.825L162,4.82,164.707,3.2m4,.094c0,.715-.9,1.294-2,1.294s-2-.579-2-1.294.9-1.295,2-1.295,2,.579,2,1.294v1.53c0,.715-.9,1.295-2,1.295s-2-.58-2-1.295V3.29" transform="translate(-147.877 12.128)" fill="#5ae6c7" stroke="#0c1c33" stroke-width="0.5"/>
    <path id="Path_10937" data-name="Path 10937" d="M162,4.82l4.708,2.825v5.649L162,10.469Zm9.415,0-4.708,2.825v5.649l4.708-2.825ZM168.708,3.2l2.707,1.624-4.708,2.825L162,4.82,164.707,3.2m4,.094c0,.715-.9,1.294-2,1.294s-2-.579-2-1.294.9-1.295,2-1.295,2,.579,2,1.294v1.53c0,.715-.9,1.295-2,1.295s-2-.58-2-1.295V3.29" transform="translate(-152.585 14.953)" fill="#5ae6c7" stroke="#0c1c33" stroke-width="0.5"/>
    <path id="Path_10938" data-name="Path 10938" d="M162,4.82l4.708,2.825v5.649L162,10.469Zm9.415,0-4.708,2.825v5.649l4.708-2.825ZM168.708,3.2l2.707,1.624-4.708,2.825L162,4.82,164.707,3.2m4,.094c0,.715-.9,1.294-2,1.294s-2-.579-2-1.294.9-1.295,2-1.295,2,.579,2,1.294v1.53c0,.715-.9,1.295-2,1.295s-2-.58-2-1.295V3.29" transform="translate(-152.585 20.602)" fill="#5ae6c7" stroke="#0c1c33" stroke-width="0.5"/>
    <path id="Path_10939" data-name="Path 10939" d="M162,4.82l4.708,2.825v5.649L162,10.469Zm9.415,0-4.708,2.825v5.649l4.708-2.825ZM168.708,3.2l2.707,1.624-4.708,2.825L162,4.82,164.707,3.2m4,.094c0,.715-.9,1.294-2,1.294s-2-.579-2-1.294.9-1.295,2-1.295,2,.579,2,1.294v1.53c0,.715-.9,1.295-2,1.295s-2-.58-2-1.295V3.29" transform="translate(-147.877 23.427)" fill="#5ae6c7" stroke="#0c1c33" stroke-width="0.5"/>
  </g>
</svg>
