<svg xmlns="http://www.w3.org/2000/svg" width="30.087" height="23.893" viewBox="0 0 30.087 23.893">
  <path id="bootstrap" d="M23.84,23.893H6.249a2.855,2.855,0,0,1-2.064-.881,3.083,3.083,0,0,1-.866-2.241,16.844,16.844,0,0,0-.527-5.23C2.241,13.76,1.328,12.834,0,12.708V11.185c1.328-.126,2.241-1.053,2.792-2.833a16.843,16.843,0,0,0,.527-5.23A3.083,3.083,0,0,1,4.185.881,2.855,2.855,0,0,1,6.249,0H23.84A2.855,2.855,0,0,1,25.9.881a3.083,3.083,0,0,1,.866,2.241,16.844,16.844,0,0,0,.527,5.23c.551,1.78,1.464,2.707,2.79,2.833v1.523c-1.326.126-2.239,1.052-2.79,2.833a16.844,16.844,0,0,0-.527,5.23,3.083,3.083,0,0,1-.866,2.241A2.855,2.855,0,0,1,23.84,23.893ZM10.454,5.59V18.3H15.7c2.789,0,4.454-1.343,4.454-3.593A3.107,3.107,0,0,0,17.181,11.6v-.07A2.848,2.848,0,0,0,19.508,8.76c0-1.926-1.507-3.17-3.839-3.17Zm4.825,11.1h-2.8V12.5h2.68a5.462,5.462,0,0,1,1.265.132,2.627,2.627,0,0,1,.912.392,1.678,1.678,0,0,1,.552.65,2.092,2.092,0,0,1,.186.9,1.849,1.849,0,0,1-.713,1.568A3.443,3.443,0,0,1,15.28,16.686ZM14.755,11H12.482V7.2h2.7a3.653,3.653,0,0,1,.978.12,2.033,2.033,0,0,1,.722.353,1.51,1.51,0,0,1,.447.574A2.069,2.069,0,0,1,17.3,9.872a1.644,1.644,0,0,1-.525.616,2.5,2.5,0,0,1-.854.38A4.782,4.782,0,0,1,14.755,11Z" fill="#5ae6c7"/>
</svg>
