<svg xmlns="http://www.w3.org/2000/svg" width="27" height="27.001" viewBox="0 0 27 27.001">
  <path id="bug" d="M8.438-18.562A5.033,5.033,0,0,1,13.5-23.625a5.063,5.063,0,0,1,5.063,5.063v.188a1.5,1.5,0,0,1-1.5,1.5H9.935a1.5,1.5,0,0,1-1.5-1.5Zm1.688,0h6.75A3.376,3.376,0,0,0,13.5-21.937,3.376,3.376,0,0,0,10.125-18.562Zm-8.19.248a.842.842,0,0,1,1.193,0l4.181,4.182a5.467,5.467,0,0,1,3.238-1.055h5.906a5.467,5.467,0,0,1,3.238,1.055l4.182-4.182a.841.841,0,0,1,1.192,0,.837.837,0,0,1,0,1.192l-4.229,4.182a5.2,5.2,0,0,1,1.1,3.238v.422h4.219A.846.846,0,0,1,27-8.437a.846.846,0,0,1-.844.844H21.938v.844A8.41,8.41,0,0,1,20.73-2.4l4.335,4.335a.843.843,0,0,1-1.192,1.192L19.707-1.034A8.414,8.414,0,0,1,13.5,1.688,8.414,8.414,0,0,1,7.293-1.034L3.128,3.127A.843.843,0,0,1,1.935,1.935L6.27-2.4A8.454,8.454,0,0,1,5.063-6.8v-.844H.844A.816.816,0,0,1,0-8.485a.877.877,0,0,1,.844-.844H5.063v-.422a5.432,5.432,0,0,1,1.055-3.19L1.935-17.123a.842.842,0,0,1,0-1.192ZM6.75-6.75a6.753,6.753,0,0,0,5.906,6.7V-10.125a.846.846,0,0,1,.844-.844.846.846,0,0,1,.844.844V-.053a6.753,6.753,0,0,0,5.906-6.7V-9.7a3.794,3.794,0,0,0-3.8-3.8H10.547a3.794,3.794,0,0,0-3.8,3.8Z" transform="translate(0 23.625)" fill="#5ae6c7"/>
</svg>
