<svg width="28" height="26" viewBox="0 0 28 26" fill="none" xmlns="http://www.w3.org/2000/svg">
<path d="M17.5 18.2C17.5 18.6875 17.0625 19.0667 16.625 19.0667H11.375C10.8828 19.0667 10.5 18.6875 10.5 18.2V15.6H0V23.4C0 24.8083 1.20312 26 2.625 26H25.375C26.7422 26 28 24.8083 28 23.4V15.6H17.5V18.2ZM25.375 5.2H21V2.6C21 1.24583 19.7422 0 18.375 0H9.625C8.20312 0 7 1.24583 7 2.6V5.2H2.625C1.20312 5.2 0 6.44583 0 7.8V13.8667H28V7.8C28 6.44583 26.7422 5.2 25.375 5.2ZM18.375 5.2H9.625V2.6H18.375V5.2Z" fill="#5AE6C7"/>
</svg>
