<svg xmlns="http://www.w3.org/2000/svg" width="27" height="25.313" viewBox="0 0 27 25.313">
  <path id="business" d="M23.625-18.562H20.25v-2.531a2.533,2.533,0,0,0-2.531-2.531H9.281A2.533,2.533,0,0,0,6.75-21.094v2.531H3.375A3.376,3.376,0,0,0,0-15.187v13.5A3.375,3.375,0,0,0,3.375,1.688h20.25A3.375,3.375,0,0,0,27-1.687v-13.5A3.378,3.378,0,0,0,23.625-18.562ZM8.438-21.094a.845.845,0,0,1,.844-.844h8.438a.845.845,0,0,1,.844.844v2.531H8.438ZM25.313-1.687A1.69,1.69,0,0,1,23.625,0H3.375A1.69,1.69,0,0,1,1.688-1.687v-6.75H9.281v3.375a.843.843,0,0,0,.844.844h6.75a.843.843,0,0,0,.844-.844V-8.437h7.594ZM10.969-5.906V-8.437h5.063v2.531Zm14.344-4.219H1.688v-5.062a1.69,1.69,0,0,1,1.688-1.687h20.25a1.69,1.69,0,0,1,1.688,1.688Z" transform="translate(0 23.625)" fill="#5ae6c7"/>
</svg>
