<svg xmlns="http://www.w3.org/2000/svg" width="29" height="29" viewBox="0 0 29 29">
  <path id="cms" d="M24,29H5a5.006,5.006,0,0,1-5-5V5A5.006,5.006,0,0,1,5,0H24a5.006,5.006,0,0,1,5,5V24A5.005,5.005,0,0,1,24,29ZM20.767,16.234a2.668,2.668,0,0,0,.425,1.491,2.85,2.85,0,0,0,1.265,1.02,4.61,4.61,0,0,0,1.878.372,3.771,3.771,0,0,0,2.315-.638,2.091,2.091,0,0,0,.843-1.758,2.452,2.452,0,0,0-1.382-2.2,7.593,7.593,0,0,0-1.453-.612,4.5,4.5,0,0,1-1.237-.551.717.717,0,0,1-.032-1.213,1.413,1.413,0,0,1,.87-.243,1.251,1.251,0,0,1,.865.287,1.037,1.037,0,0,1,.319.808h2.051a2.453,2.453,0,0,0-.4-1.385,2.629,2.629,0,0,0-1.134-.935,4,4,0,0,0-1.65-.328,4.563,4.563,0,0,0-1.7.3,2.684,2.684,0,0,0-1.168.844,2.013,2.013,0,0,0-.413,1.25,2.5,2.5,0,0,0,1.658,2.238A10.867,10.867,0,0,0,24,15.508a4,4,0,0,1,1.122.521.849.849,0,0,1,.319.7.726.726,0,0,1-.3.617,1.327,1.327,0,0,1-.806.221,1.68,1.68,0,0,1-1.151-.326,1.313,1.313,0,0,1-.355-1.011ZM6,10.346a3.522,3.522,0,0,0-1.9.513A3.329,3.329,0,0,0,2.84,12.311a5.2,5.2,0,0,0-.437,2.2v.421a4.546,4.546,0,0,0,.967,3.094,3.362,3.362,0,0,0,2.648,1.1,4.227,4.227,0,0,0,1.813-.374,2.922,2.922,0,0,0,1.234-1.057,3.143,3.143,0,0,0,.481-1.574H7.5a1.429,1.429,0,0,1-.4,1.061,1.589,1.589,0,0,1-1.084.334,1.257,1.257,0,0,1-1.18-.586A4.1,4.1,0,0,1,4.5,14.969v-.6a3.712,3.712,0,0,1,.374-1.833A1.233,1.233,0,0,1,6,11.957a1.62,1.62,0,0,1,1.125.339,1.537,1.537,0,0,1,.393,1.12h2.05a3.243,3.243,0,0,0-1.072-2.254A3.7,3.7,0,0,0,6,10.346Zm11.869,2.591h0l-.2,4.072V19h2.063V10.469H17.024l-1.9,5.936-1.9-5.936h-2.7V19h2.057V17.008l-.2-4.084L14.445,19H15.8Z" fill="#5ae6c7"/>
</svg>
