<svg xmlns="http://www.w3.org/2000/svg" width="25.696" height="25.622" viewBox="0 0 25.696 25.622">
  <path id="Path_2" data-name="Path 2" d="M75.677,84.282a1.148,1.148,0,0,1-1.051-.687,1,1,0,0,1-1.617-.626.816.816,0,0,1-.353.081h-.017a.814.814,0,0,1-.787-.735l0-.009a1.694,1.694,0,0,1-2.983-.232,1.391,1.391,0,0,1-.389.294,1.4,1.4,0,0,1-2.035-1.2,1.262,1.262,0,0,1-1.674-1.537,1.148,1.148,0,0,1-1.11-1.831,1,1,0,0,1-.223-1.722.81.81,0,0,1-.232-1.058l.024,0a1.693,1.693,0,0,1-.963-2.646,1.393,1.393,0,0,1-.432-2.547,1.262,1.262,0,0,1,.474-2.229,1.148,1.148,0,0,1,.877-1.888,1.158,1.158,0,0,1,.143.009,1,1,0,0,1,1.375-1.062.815.815,0,0,1,.123-.356.824.824,0,0,1,.55-.365,1.691,1.691,0,0,1,1.647-2.07c.052,0,.1,0,.156.007a1.391,1.391,0,0,1-.076-.479,1.405,1.405,0,0,1,.422-.965,1.375,1.375,0,0,1,.967-.4h.043a1.4,1.4,0,0,1,.6.147,1.262,1.262,0,0,1,2.153-.735,1.148,1.148,0,0,1,1.035-.783h.054a1.148,1.148,0,0,1,1.05.685,1,1,0,0,1,1.617.626.817.817,0,0,1,.344-.076h.026a.811.811,0,0,1,.536.219.821.821,0,0,1,.256.511l-.007.011h0l0,0,.009-.014h0a1.687,1.687,0,0,1,2.974.247,1.391,1.391,0,0,1,.389-.3,1.4,1.4,0,0,1,2.035,1.2,1.262,1.262,0,0,1,1.679,1.541,1.148,1.148,0,0,1,1.11,1.826,1,1,0,0,1,.223,1.722.819.819,0,0,1,.228,1.062,1.691,1.691,0,0,1,.939,2.637,1.4,1.4,0,0,1,.436,2.552,1.262,1.262,0,0,1,.289,1.674,1.244,1.244,0,0,1-.338.353,1.29,1.29,0,0,1-.43.2,1.148,1.148,0,0,1-.873,1.892,1.156,1.156,0,0,1-.147-.009c0-.018-.006-.035-.01-.052a1,1,0,0,1-1.366,1.11.815.815,0,0,1-.123.356.791.791,0,0,1-.545.365,1.7,1.7,0,0,1-1.651,2.075c-.05,0-.1,0-.15-.007a1.4,1.4,0,0,1-1.328,1.84h-.034a1.4,1.4,0,0,1-.6-.152,1.262,1.262,0,0,1-2.153.74,1.148,1.148,0,0,1-1.037.781ZM74,81.83h.021a1,1,0,0,1,.839.5,1.143,1.143,0,0,1,.815-.342H75.7a1.137,1.137,0,0,1,.745.3,1.261,1.261,0,0,1,1.218-.935h.029a1.251,1.251,0,0,1,.46.1v.028A1.4,1.4,0,0,1,79.5,80.118a1.681,1.681,0,0,1-.156-.934,1.692,1.692,0,0,1,.3-.781,1.738,1.738,0,0,1,.617-.532l0,0a1.409,1.409,0,0,1-.1-1.84,1.295,1.295,0,0,1-.574-1.589,1.162,1.162,0,0,1-1.043-1.186,1.171,1.171,0,0,1,.014-.18.94.94,0,0,1-.188.019h-.011a.94.94,0,0,1-.887-.726.837.837,0,0,1-.468.143h-.02a.859.859,0,0,1-.277-.056.848.848,0,0,1-.414-.34.832.832,0,0,1-.106-.254.532.532,0,0,1-.258.067h-.017a.535.535,0,0,1-.228-.057v-.01a1.729,1.729,0,0,1-.46.759.529.529,0,0,1,.237.74.844.844,0,0,1,.417,1.413.937.937,0,0,1,.455.427.925.925,0,0,1,.058.714.938.938,0,0,1-.465.547,1.176,1.176,0,0,1,.322,1.233,1.129,1.129,0,0,1-.574.664,1.166,1.166,0,0,1-.285.1v0a1.294,1.294,0,0,1-1.147,1.888c-.036,0-.073,0-.11,0a1.409,1.409,0,0,1-.839,1.375.814.814,0,0,1,.142.266h0v0A.992.992,0,0,1,74,81.83Zm6.831-.763h0l.049,0v0H80.83ZM67.85,79.724h0a1.395,1.395,0,0,1,1.2.688,1.688,1.688,0,0,1,1.878-.627,1.717,1.717,0,0,1,.46.224,1.405,1.405,0,0,1,1.565-.963,1.3,1.3,0,0,1,1.124-1.266,1.146,1.146,0,0,1-.021-.845,1.121,1.121,0,0,1,.728-.705.939.939,0,0,1-.114-.171.923.923,0,0,1-.084-.6.951.951,0,0,1,.3-.519.835.835,0,0,1-.356-.36.861.861,0,0,1-.084-.271.848.848,0,0,1,.273-.744.557.557,0,0,1-.251-.512,1.727,1.727,0,0,1-.421.052h-.006a1.634,1.634,0,0,1-.408-.047.533.533,0,0,1-.512.621.844.844,0,0,1-1.005,1.072.938.938,0,0,1-1.437.892,1.167,1.167,0,0,1-2,.55v0a1.3,1.3,0,0,1-2.262-.138,1.411,1.411,0,0,1-1.807-.2.829.829,0,0,1-.1.133.99.99,0,0,1,.384,1.4,1.155,1.155,0,0,1,.406.211,1.1,1.1,0,0,1,.3.368,1.138,1.138,0,0,1,.095.792,1.253,1.253,0,0,1,1.551,1.105A1.381,1.381,0,0,1,67.85,79.724Zm14.763-2.338h0l.128.024a1,1,0,0,1,1-1.044h.024a1.129,1.129,0,0,1,.783-1.375,1.252,1.252,0,0,1,.171-1.9,1.394,1.394,0,0,1-.446-1.845,1.681,1.681,0,0,1-.882-.346h0a1.693,1.693,0,0,1-.65-1.47,1.415,1.415,0,0,1-.316.036,1.362,1.362,0,0,1-.746-.221,1.4,1.4,0,0,1-.56-.678,1.291,1.291,0,0,1-1.66-.332,1.163,1.163,0,0,1-.932.468,1.151,1.151,0,0,1-.623-.183,1.183,1.183,0,0,1-.142-.1.933.933,0,0,1-1.167.564.853.853,0,0,1-.444.779.846.846,0,0,1-.657.06.532.532,0,0,1-.081.27.539.539,0,0,1-.095.109,1.729,1.729,0,0,1,.4.716.534.534,0,0,1,.23-.052h.007a.535.535,0,0,1,.436.247.844.844,0,0,1,1.442.308.935.935,0,0,1,.571-.195h.022a.922.922,0,0,1,.657.289.941.941,0,0,1,.258.669v.01h0l-.009.085c0-.028.007-.056.009-.085h0v-.005a1.16,1.16,0,0,1,.388-.067h.025a1.162,1.162,0,0,1,1.138,1.2,1.169,1.169,0,0,1-.047.3,1.294,1.294,0,0,1,1.048,2.006,1.389,1.389,0,0,1,.726,1.774l0-.009ZM67.582,74.2h0a1.317,1.317,0,0,1,1.025.5,1.167,1.167,0,0,1,.935-.468,1.139,1.139,0,0,1,.621.183,1.171,1.171,0,0,1,.142.109.941.941,0,0,1,1.171-.569.838.838,0,0,1,1.1-.83.531.531,0,0,1,.313-.474,1.735,1.735,0,0,1-.455-.664V71.98a.529.529,0,0,1-.3.1h-.015a.536.536,0,0,1-.436-.242.844.844,0,0,1-1.437-.308.935.935,0,0,1-.565.19h-.032a.919.919,0,0,1-.652-.286.933.933,0,0,1-.258-.672,1.16,1.16,0,0,1-.376.062h-.042a1.162,1.162,0,0,1-1.086-1.494h0a1.29,1.29,0,0,1-1.048-2,1.42,1.42,0,0,1-.726-1.769.83.83,0,0,1-.128-.024,1,1,0,0,1-1,1.044H64.3a1.14,1.14,0,0,1-.778,1.38,1.273,1.273,0,0,1,.344.744,1.263,1.263,0,0,1-.515,1.153,1.394,1.394,0,0,1,.446,1.84,1.681,1.681,0,0,1,.877.351,1.693,1.693,0,0,1,.65,1.466,1.409,1.409,0,0,1,.311-.035,1.377,1.377,0,0,1,.387.055,1.422,1.422,0,0,1,.37.169,1.4,1.4,0,0,1,.555.673A1.3,1.3,0,0,1,67.582,74.2Zm3.466-3.775h.016a.831.831,0,0,1,.515.191.854.854,0,0,1,.179.2.867.867,0,0,1,.108.254.531.531,0,0,1,.484-.019,1.72,1.72,0,0,1,.384-.8.533.533,0,0,1-.147-.678.844.844,0,0,1-.413-1.418.936.936,0,0,1,.033-1.726c-.026.01-.051.021-.076.033a1.162,1.162,0,0,1,.536-2v0a1.3,1.3,0,0,1,1.151-1.887c.035,0,.071,0,.106,0a1.409,1.409,0,0,1,.759-1.337l.076-.033a.813.813,0,0,1-.138-.266.993.993,0,0,1-.551.166h-.027a1,1,0,0,1-.839-.5l0,0a1.143,1.143,0,0,1-.815.342h-.029a1.138,1.138,0,0,1-.74-.294,1.261,1.261,0,0,1-1.217.93h-.035a1.252,1.252,0,0,1-.46-.095,1.394,1.394,0,0,1-1.347,1.328,1.681,1.681,0,0,1,.157.934,1.693,1.693,0,0,1-.92,1.314,1.409,1.409,0,0,1,.095,1.835,1.271,1.271,0,0,1,.574,1.589,1.162,1.162,0,0,1,1.043,1.19,1.178,1.178,0,0,1-.014.176.941.941,0,0,1,.166-.015h.033a.93.93,0,0,1,.574.213.942.942,0,0,1,.318.512A.837.837,0,0,1,71.048,70.429ZM75.1,63.9h0a1.3,1.3,0,0,1-1.119,1.262,1.165,1.165,0,0,1-.545,1.484,1.171,1.171,0,0,1-.161.071.936.936,0,0,1-.1,1.295.853.853,0,0,1,.442.629.824.824,0,0,1-.007.272.833.833,0,0,1-.094.254.843.843,0,0,1-.175.215.532.532,0,0,1,.194.209.472.472,0,0,1,.047.128,1.721,1.721,0,0,1,.854-.019.527.527,0,0,1,.5-.427.844.844,0,0,1,1.01-1.077.937.937,0,0,1,.142-.607.93.93,0,0,1,1.29-.285,1.162,1.162,0,0,1,2-.55,1.3,1.3,0,0,1,2.262.138,1.415,1.415,0,0,1,.789-.241,1.382,1.382,0,0,1,.752.222,1.408,1.408,0,0,1,.266.218.818.818,0,0,1,.1-.138,1,1,0,0,1-.384-1.4,1.148,1.148,0,0,1-.8-1.371,1.259,1.259,0,0,1-1.551-1.105,1.382,1.382,0,0,1-.61.141,1.394,1.394,0,0,1-1.2-.686,1.692,1.692,0,0,1-2.338.4v-.014a1.413,1.413,0,0,1-1.57.982ZM63.334,65.719c0,.018.006.035.009.053l0-.052h0Z" transform="translate(-61.179 -58.66)" fill="#8892b0"/>
</svg>
