<svg xmlns="http://www.w3.org/2000/svg" width="20.579" height="28" viewBox="0 0 20.579 28">
  <path id="corel" d="M91.739.438a8.128,8.128,0,0,0-2.45.766,8.252,8.252,0,0,0-4.444,7.624c.086,4.838,4.558,13.059,7.577,15.7,0,0-4.9-8.109-5.26-15.18S91.739.438,91.739.438Zm3.169,0s4.93,1.838,4.576,8.909-5.26,15.18-5.26,15.18c3.019-2.639,7.492-10.86,7.579-15.7A8.252,8.252,0,0,0,97.356,1.2,8.122,8.122,0,0,0,94.908.438ZM93.276.46a1.341,1.341,0,0,0-.658.165c-1.813.968-2.946,4.459-2.628,9.917A62.315,62.315,0,0,0,92.862,24.53h.827a62.326,62.326,0,0,0,2.872-13.986c.318-5.461-.815-8.952-2.628-9.92A1.336,1.336,0,0,0,93.276.46ZM87.431,1.68a7.483,7.483,0,0,0-4.249,8.354c1.047,6.2,6.623,12.827,8.278,14.234.594.536-6.841-7.639-7.562-14.819A7.777,7.777,0,0,1,87.431,1.68Zm11.807,0a7.777,7.777,0,0,1,3.533,7.769c-.721,7.18-8.155,15.355-7.562,14.819,1.655-1.406,7.229-8.029,8.277-14.234A7.482,7.482,0,0,0,99.238,1.68ZM91.163,25.924l.568,2.514h3.081l.576-2.514Z" transform="translate(-83.045 -0.438)" fill="#5ae6c7"/>
</svg>
