<svg xmlns="http://www.w3.org/2000/svg" width="26.998" height="27" viewBox="0 0 26.998 27">
  <path id="expert" d="M22.359-16.079a2.925,2.925,0,0,1-2.953,2.953,2.925,2.925,0,0,1-2.953-2.953,2.986,2.986,0,0,1,2.953-2.953A2.986,2.986,0,0,1,22.359-16.079Zm-2.953,1.266a1.234,1.234,0,0,0,1.266-1.266,1.294,1.294,0,0,0-1.266-1.266,1.294,1.294,0,0,0-1.266,1.266A1.234,1.234,0,0,0,19.406-14.813ZM18.383.612,13.036,3.285a.845.845,0,0,1-1.223-.754V-3.517A4.917,4.917,0,0,0,10.373-7a4.917,4.917,0,0,0-3.48-1.44H.844a.846.846,0,0,1-.718-.4.847.847,0,0,1-.037-.823l2.675-5.347a3.419,3.419,0,0,1,3.021-1.914h5.131c4.213-6.9,10.679-7.153,14.6-6.425a1.49,1.49,0,0,1,1.2,1.2c.728,3.925.475,10.39-6.471,14.556V-2.41A3.379,3.379,0,0,1,18.383.612ZM12.836-6.407c6.449-1.587,9.592-4.451,11.1-7.151a12.394,12.394,0,0,0,1.15-8.153,12.434,12.434,0,0,0-8.153,1.148c-2.747,1.511-5.563,4.653-7.151,11.1A6.48,6.48,0,0,1,11.565-8.19,6.48,6.48,0,0,1,12.836-6.407ZM13.5,1.165,17.629-.944a1.569,1.569,0,0,0,.933-1.466V-6.634a24.234,24.234,0,0,1-5.189,1.788A7.3,7.3,0,0,1,13.5-3.517ZM8.174-10a27.589,27.589,0,0,1,1.835-5.237H5.785a1.728,1.728,0,0,0-1.511.981L2.209-10.125H6.892A6.8,6.8,0,0,1,8.174-10ZM8.78,1.16C6.17,3.771.025,3.349.025,3.349S-.4-2.842,2.214-5.405a4.642,4.642,0,0,1,6.566,0,4.641,4.641,0,0,1,0,6.565ZM7.588-4.213a2.956,2.956,0,0,0-4.181,0A7.752,7.752,0,0,0,1.816.148C1.751.7,1.717,1.218,1.7,1.677c.454-.021.975-.053,1.525-.116A7.786,7.786,0,0,0,7.588-.032a2.957,2.957,0,0,0,0-4.182Z" transform="translate(0 23.625)" fill="#5ae6c7"/>
</svg>
