<svg id="featured" xmlns="http://www.w3.org/2000/svg" width="69.537" height="69.537" viewBox="0 0 69.537 69.537">
  <path id="Path_10959" data-name="Path 10959" d="M360,4350.672v35.033l69.537-69.537H394.5l-34.5,34.5Z" transform="translate(-360 -4316.168)" fill="#5ae6c7"/>
  <path id="Path_10963" data-name="Path 10963" d="M.96,0V-8.316H6.528v1.572h-3.7V-5H6.12v1.572H2.832V0ZM7.308-3.108a3.86,3.86,0,0,1,.258-1.47,3.152,3.152,0,0,1,.678-1.05,2.82,2.82,0,0,1,.966-.636,3.025,3.025,0,0,1,1.122-.216,2.788,2.788,0,0,1,2.124.822,3.387,3.387,0,0,1,.78,2.418q0,.156-.012.342t-.024.33H9.144a1.188,1.188,0,0,0,.516.876,2.074,2.074,0,0,0,1.224.324,5.167,5.167,0,0,0,.966-.09,3.646,3.646,0,0,0,.774-.222l.24,1.452a2.469,2.469,0,0,1-.384.144,5.025,5.025,0,0,1-.534.126q-.294.054-.63.09a6.3,6.3,0,0,1-.672.036A3.978,3.978,0,0,1,9.162-.084a2.887,2.887,0,0,1-1.044-.69,2.739,2.739,0,0,1-.612-1.038A4.112,4.112,0,0,1,7.308-3.108Zm4.2-.684a1.846,1.846,0,0,0-.078-.444,1.109,1.109,0,0,0-.2-.384,1.086,1.086,0,0,0-.348-.276A1.134,1.134,0,0,0,10.356-5a1.2,1.2,0,0,0-.516.1,1.066,1.066,0,0,0-.36.27,1.208,1.208,0,0,0-.222.39,2.559,2.559,0,0,0-.114.45Zm5.52,2.544q.264,0,.5-.012a3.507,3.507,0,0,0,.384-.036V-2.652q-.108-.024-.324-.048a3.608,3.608,0,0,0-.4-.024,3.544,3.544,0,0,0-.474.03,1.238,1.238,0,0,0-.39.114.669.669,0,0,0-.264.228.635.635,0,0,0-.1.36.613.613,0,0,0,.282.582A1.558,1.558,0,0,0,17.028-1.248ZM16.884-6.48a4.141,4.141,0,0,1,1.32.18,2.05,2.05,0,0,1,.846.516,1.9,1.9,0,0,1,.45.816A4.025,4.025,0,0,1,19.632-3.9V-.18q-.384.084-1.068.2a10.263,10.263,0,0,1-1.656.114A5.25,5.25,0,0,1,15.8.024,2.409,2.409,0,0,1,14.94-.33a1.62,1.62,0,0,1-.552-.642,2.216,2.216,0,0,1-.192-.972,1.842,1.842,0,0,1,.222-.936,1.709,1.709,0,0,1,.594-.612,2.684,2.684,0,0,1,.852-.33,4.78,4.78,0,0,1,1-.1,5.655,5.655,0,0,1,.618.03,2.751,2.751,0,0,1,.438.078v-.168a.989.989,0,0,0-.276-.732,1.336,1.336,0,0,0-.96-.276,6.113,6.113,0,0,0-.9.066,3.861,3.861,0,0,0-.768.186l-.228-1.44q.156-.048.39-.1t.51-.1q.276-.042.582-.072T16.884-6.48Zm4.308-1.4,1.788-.288v1.86h2.148v1.488H22.98V-2.6a1.766,1.766,0,0,0,.2.9.85.85,0,0,0,.8.336,3.416,3.416,0,0,0,.594-.054,3.062,3.062,0,0,0,.558-.15L25.38-.18a5.087,5.087,0,0,1-.72.228,4.2,4.2,0,0,1-.972.1,3.2,3.2,0,0,1-1.212-.2,1.9,1.9,0,0,1-.768-.552,2.055,2.055,0,0,1-.4-.858,5.065,5.065,0,0,1-.114-1.116ZM31.968-.216A9.966,9.966,0,0,1,30.792.03,9.664,9.664,0,0,1,29.28.144a3.59,3.59,0,0,1-1.338-.216A2.031,2.031,0,0,1,27.1-.678a2.365,2.365,0,0,1-.444-.93A5,5,0,0,1,26.52-2.8V-6.312h1.788v3.3a2.558,2.558,0,0,0,.228,1.248.907.907,0,0,0,.852.384q.192,0,.408-.018t.384-.042V-6.312h1.788Zm5.484-4.512q-.24-.06-.564-.126a3.485,3.485,0,0,0-.7-.066,3.229,3.229,0,0,0-.4.03,2.366,2.366,0,0,0-.354.066V0H33.648V-5.976a10.741,10.741,0,0,1,1.134-.318,6.534,6.534,0,0,1,1.458-.15q.144,0,.348.018T37-6.378q.2.03.408.072a1.92,1.92,0,0,1,.348.1Zm.84,1.62a3.86,3.86,0,0,1,.258-1.47,3.152,3.152,0,0,1,.678-1.05,2.82,2.82,0,0,1,.966-.636,3.025,3.025,0,0,1,1.122-.216,2.788,2.788,0,0,1,2.124.822,3.387,3.387,0,0,1,.78,2.418q0,.156-.012.342t-.024.33H40.128a1.188,1.188,0,0,0,.516.876,2.074,2.074,0,0,0,1.224.324,5.167,5.167,0,0,0,.966-.09,3.646,3.646,0,0,0,.774-.222l.24,1.452a2.469,2.469,0,0,1-.384.144,5.025,5.025,0,0,1-.534.126q-.294.054-.63.09a6.3,6.3,0,0,1-.672.036,3.978,3.978,0,0,1-1.482-.252A2.887,2.887,0,0,1,39.1-.774a2.739,2.739,0,0,1-.612-1.038A4.112,4.112,0,0,1,38.292-3.108Zm4.2-.684a1.845,1.845,0,0,0-.078-.444,1.109,1.109,0,0,0-.2-.384,1.086,1.086,0,0,0-.348-.276A1.134,1.134,0,0,0,41.34-5a1.2,1.2,0,0,0-.516.1,1.066,1.066,0,0,0-.36.27,1.208,1.208,0,0,0-.222.39,2.559,2.559,0,0,0-.114.45Zm4.632.588A2.191,2.191,0,0,0,47.5-1.872a1.285,1.285,0,0,0,1.1.5q.24,0,.444-.018t.336-.042V-4.68a1.554,1.554,0,0,0-.438-.18,2.11,2.11,0,0,0-.546-.072Q47.124-4.932,47.124-3.2Zm4.044,3q-.24.072-.552.138t-.654.114q-.342.048-.7.078t-.678.03A3.969,3.969,0,0,1,47.2-.072a2.8,2.8,0,0,1-1.032-.654,2.838,2.838,0,0,1-.642-1.032A3.939,3.939,0,0,1,45.3-3.12a4.662,4.662,0,0,1,.192-1.386,3.016,3.016,0,0,1,.552-1.05,2.363,2.363,0,0,1,.882-.66,2.957,2.957,0,0,1,1.194-.228,2.808,2.808,0,0,1,.666.072,3.6,3.6,0,0,1,.594.2V-9.024l1.788-.288Z" transform="translate(10.75 47.343) rotate(-45)" fill="#0a192f"/>
</svg>
