<svg id="figma" xmlns="http://www.w3.org/2000/svg" width="18.667" height="28" viewBox="0 0 18.667 28">
  <path id="path0_fill" d="M4.667,209.333a4.668,4.668,0,0,0,4.667-4.667V200H4.667a4.667,4.667,0,1,0,0,9.333Z" transform="translate(0 -181.333)" fill="#5ae6c7"/>
  <path id="path1_fill" d="M0,104.667A4.668,4.668,0,0,1,4.667,100H9.333v9.333H4.667A4.668,4.668,0,0,1,0,104.667Z" transform="translate(0 -90.667)" fill="#5ae6c7"/>
  <path id="path1_fill_1_" d="M0,4.667A4.668,4.668,0,0,1,4.667,0H9.333V9.333H4.667A4.668,4.668,0,0,1,0,4.667Z" fill="#5ae6c7"/>
  <path id="path2_fill" d="M100,0h4.667a4.667,4.667,0,1,1,0,9.333H100Z" transform="translate(-90.667)" fill="#5ae6c7"/>
  <path id="path3_fill" d="M109.333,104.667A4.667,4.667,0,1,1,104.667,100,4.668,4.668,0,0,1,109.333,104.667Z" transform="translate(-90.667 -90.667)" fill="#5ae6c7"/>
</svg>
