<svg width="28" height="28" viewBox="0 0 28 28" fill="none" xmlns="http://www.w3.org/2000/svg">
<g clip-path="url(#clip0_981_48)">
<path d="M24.4237 6.80269L17.8614 0.240352C17.7057 0.0846563 17.4931 0 17.2812 0H5.79688C4.43991 0 3.33594 1.10398 3.33594 2.46094V25.5391C3.33594 26.896 4.43991 28 5.79688 28H22.2031C23.5601 28 24.6641 26.896 24.6641 25.5391V7.38281C24.6641 7.15772 24.5687 6.94766 24.4237 6.80269ZM18.1016 2.80071L21.8634 6.5625H18.9219C18.4696 6.5625 18.1016 6.19451 18.1016 5.74219V2.80071ZM22.2031 26.3594H5.79688C5.34455 26.3594 4.97656 25.9914 4.97656 25.5391V2.46094C4.97656 2.00862 5.34455 1.64062 5.79688 1.64062H16.4609V5.74219C16.4609 7.09915 17.5649 8.20312 18.9219 8.20312H23.0234V25.5391C23.0234 25.9914 22.6554 26.3594 22.2031 26.3594Z" fill="#5AE6C7"/>
<path d="M18.9219 13.2344H10.7188C10.2657 13.2344 9.89844 13.6017 9.89844 14.0547C9.89844 14.5077 10.2657 14.875 10.7188 14.875H18.9219C19.3749 14.875 19.7422 14.5077 19.7422 14.0547C19.7422 13.6017 19.3749 13.2344 18.9219 13.2344Z" fill="#5AE6C7"/>
<path d="M18.9219 16.5156H10.7188C10.2657 16.5156 9.89844 16.8829 9.89844 17.3359C9.89844 17.789 10.2657 18.1562 10.7188 18.1562H18.9219C19.3749 18.1562 19.7422 17.789 19.7422 17.3359C19.7422 16.8829 19.3749 16.5156 18.9219 16.5156Z" fill="#5AE6C7"/>
<path d="M18.9219 19.7969H10.7188C10.2657 19.7969 9.89844 20.1642 9.89844 20.6172C9.89844 21.0702 10.2657 21.4375 10.7188 21.4375H18.9219C19.3749 21.4375 19.7422 21.0702 19.7422 20.6172C19.7422 20.1642 19.3749 19.7969 18.9219 19.7969Z" fill="#5AE6C7"/>
<path d="M7.4375 14.875C7.89055 14.875 8.25781 14.5077 8.25781 14.0547C8.25781 13.6016 7.89055 13.2344 7.4375 13.2344C6.98445 13.2344 6.61719 13.6016 6.61719 14.0547C6.61719 14.5077 6.98445 14.875 7.4375 14.875Z" fill="#5AE6C7"/>
<path d="M7.4375 18.1562C7.89055 18.1562 8.25781 17.789 8.25781 17.3359C8.25781 16.8829 7.89055 16.5156 7.4375 16.5156C6.98445 16.5156 6.61719 16.8829 6.61719 17.3359C6.61719 17.789 6.98445 18.1562 7.4375 18.1562Z" fill="#5AE6C7"/>
<path d="M7.4375 21.4375C7.89055 21.4375 8.25781 21.0702 8.25781 20.6172C8.25781 20.1641 7.89055 19.7969 7.4375 19.7969C6.98445 19.7969 6.61719 20.1641 6.61719 20.6172C6.61719 21.0702 6.98445 21.4375 7.4375 21.4375Z" fill="#5AE6C7"/>
</g>
<defs>
<clipPath id="clip0_981_48">
<rect width="28" height="28" fill="white"/>
</clipPath>
</defs>
</svg>
