<svg xmlns="http://www.w3.org/2000/svg" width="28.639" height="28.638" viewBox="0 0 28.639 28.638">
  <g id="git" transform="translate(-2.555 -2.558)">
    <path id="Path_10975" data-name="Path 10975" d="M30.654,15.6,18.15,3.1a1.844,1.844,0,0,0-2.608,0l-2.6,2.6,3.293,3.293a2.19,2.19,0,0,1,2.774,2.793l3.175,3.174a2.193,2.193,0,1,1-1.314,1.238l-2.961-2.961v7.791a2.191,2.191,0,1,1-1.8-.064V13.1a2.2,2.2,0,0,1-1.192-2.878L11.669,6.97,3.095,15.543a1.845,1.845,0,0,0,0,2.609l12.5,12.5a1.844,1.844,0,0,0,2.608,0L30.654,18.21A1.845,1.845,0,0,0,30.654,15.6Z" fill="#5ae6c7"/>
  </g>
</svg>
