<svg xmlns="http://www.w3.org/2000/svg" width="28.317" height="28.317" viewBox="0 0 28.317 28.317">
  <path id="js" d="M0-85.312V-57H28.317V-85.312ZM15.41-63.227c0,2.756-1.618,4.014-3.976,4.014A4.134,4.134,0,0,1,7.44-61.647l2.168-1.308c.417.74.8,1.365,1.713,1.365.872,0,1.429-.341,1.429-1.675v-9.045H15.41Zm6.3,4.014a5.107,5.107,0,0,1-4.848-2.718l2.168-1.252a2.9,2.9,0,0,0,2.623,1.618c1.1,0,1.808-.55,1.808-1.315,0-.91-.721-1.233-1.94-1.77l-.664-.284c-1.922-.815-3.192-1.846-3.192-4.014,0-2,1.523-3.514,3.894-3.514a3.919,3.919,0,0,1,3.78,2.13L23.261-69a1.81,1.81,0,0,0-1.713-1.138A1.155,1.155,0,0,0,20.277-69c0,.8.493,1.119,1.637,1.618l.664.284c2.263.967,3.533,1.959,3.533,4.184C26.111-60.528,24.228-59.214,21.706-59.214Z" transform="translate(0 85.313)" fill="#5ae6c7"/>
</svg>
