<svg xmlns="http://www.w3.org/2000/svg" width="27" height="27" viewBox="0 0 27 27">
  <path id="large" d="M23.625-16.875A3.378,3.378,0,0,1,27-13.5V0a3.378,3.378,0,0,1-3.375,3.375H3.375A3.376,3.376,0,0,1,0,0V-13.5a3.376,3.376,0,0,1,3.375-3.375Zm0,1.688H3.375A1.687,1.687,0,0,0,1.688-13.5V0A1.687,1.687,0,0,0,3.375,1.688h20.25A1.686,1.686,0,0,0,25.313,0V-13.5A1.686,1.686,0,0,0,23.625-15.187Zm0-5.062a.845.845,0,0,1,.844.844.845.845,0,0,1-.844.844H3.375a.844.844,0,0,1-.844-.844.844.844,0,0,1,.844-.844Zm-2.531-3.375a.845.845,0,0,1,.844.844.845.845,0,0,1-.844.844H5.906a.845.845,0,0,1-.844-.844.845.845,0,0,1,.844-.844Z" transform="translate(0 23.625)" fill="#5ae6c7"/>
</svg>
