<svg width="29" height="20" viewBox="0 0 29 20" fill="none" xmlns="http://www.w3.org/2000/svg">
<path d="M28.2297 4.67895L15.4062 0.167504C14.7719 -0.0558347 14.0922 -0.0558347 13.4578 0.167504L0.725 4.67895C0.271875 4.85762 0 5.25963 0 5.70631C0 6.19765 0.271875 6.59966 0.725 6.77834L3.44375 7.71636C2.9 8.43104 2.49219 9.23506 2.31094 10.1284C1.8125 10.3518 1.45 10.8431 1.45 11.4238C1.45 11.8705 1.63125 12.2725 1.94844 12.5405L0.860937 19.196C0.770312 19.6427 1.13281 20 1.54062 20H4.21406C4.62187 20 4.98437 19.6427 4.89375 19.196L3.80625 12.5405C4.12344 12.2725 4.35 11.8705 4.35 11.4238C4.35 10.9771 4.07812 10.5751 3.76094 10.3518C3.94219 9.54774 4.35 8.83305 4.89375 8.25237L13.5031 11.2898C14.1375 11.5131 14.8172 11.5131 15.4516 11.2898L28.2297 6.77834C28.6828 6.59966 29 6.19765 29 5.70631C29 5.25963 28.6828 4.85762 28.2297 4.67895ZM15.9047 12.6298C15.4516 12.8085 14.9531 12.8532 14.5 12.8532C14.0016 12.8532 13.5031 12.8085 13.05 12.6298L6.43437 10.3071L5.8 16.6946C5.8 18.526 9.65156 20 14.5 20C19.2578 20 23.2 18.526 23.2 16.6946L22.5203 10.3071L15.9047 12.6298Z" fill="#5AE6C7"/>
</svg>
