<svg xmlns="http://www.w3.org/2000/svg" width="32.5" height="22.75" viewBox="0 0 32.5 22.75">
  <path id="learn" d="M31.373-15.808,16.834-21.023a1.743,1.743,0,0,0-1.168,0L1.128-15.808A1.659,1.659,0,0,0,0-14.264a1.72,1.72,0,0,0,1.128,1.59l1.309.517v5.743L.833.635a.808.808,0,0,0,.792.99H4.874a.813.813,0,0,0,.793-.99L4.063-6.52v-5.058l11.6,4.164a1.74,1.74,0,0,0,.582.1,1.775,1.775,0,0,0,.587-.1l14.534-5.215A1.682,1.682,0,0,0,32.5-14.264a1.574,1.574,0,0,0-1.127-1.544ZM2.645-.046l.614-2.679.6,2.679Zm13.57-8.9L6.576-12.4l9.913-3.072a.812.812,0,0,0,.537-1.017.809.809,0,0,0-1.016-.536L4.032-13.315l-2.407-.9,14.661-5.276,14.589,5.276L16.214-8.943Zm8.277.823a.813.813,0,0,0-.7.913l.577,4.4a1.141,1.141,0,0,1-.752,1.134A18.565,18.565,0,0,1,16.345,0h-.172A18.588,18.588,0,0,1,8.882-1.674,1.142,1.142,0,0,1,8.13-2.807l.579-4.4a.813.813,0,0,0-.7-.913.8.8,0,0,0-.91.7l-.577,4.4A2.73,2.73,0,0,0,8.2-.2a20.262,20.262,0,0,0,7.951,1.822h.21A20.217,20.217,0,0,0,24.3-.2a2.732,2.732,0,0,0,1.68-2.821l-.577-4.4A.806.806,0,0,0,24.492-8.12Z" transform="translate(0 21.125)" fill="#5ae6c7"/>
</svg>
