<svg xmlns="http://www.w3.org/2000/svg" width="23.625" height="26.953" viewBox="0 0 23.625 26.953">
  <path id="manage" d="M5.063-16.875a6.75,6.75,0,0,1,6.75-6.75,6.75,6.75,0,0,1,6.75,6.75,6.749,6.749,0,0,1-6.75,6.75A6.749,6.749,0,0,1,5.063-16.875Zm11.813,0a5.063,5.063,0,0,0-5.062-5.062A5.033,5.033,0,0,0,6.75-16.875a5.034,5.034,0,0,0,5.063,5.063A5.064,5.064,0,0,0,16.875-16.875ZM13.5-7.594a.846.846,0,0,1,.844.844.846.846,0,0,1-.844.844h-.517l1.049,3.154L16.01-6.7a8.5,8.5,0,0,1,7.615,8.459,1.583,1.583,0,0,1-1.619,1.571H1.62A1.581,1.581,0,0,1,0,1.756,8.5,8.5,0,0,1,7.615-6.7l1.978,3.95,1.049-3.154h-.564a.879.879,0,0,1-.844-.844.879.879,0,0,1,.844-.844ZM11.813,1.64,12.967-.622,11.813-4.082,10.658-.622Zm10.078,0a6.713,6.713,0,0,0-4.941-6.455L13.7,1.64Zm-11.965,0L6.676-4.815A6.811,6.811,0,0,0,1.688,1.64H9.925Z" transform="translate(0 23.625)" fill="#5ae6c7"/>
</svg>
