<svg xmlns="http://www.w3.org/2000/svg" width="20.898" height="19.624" viewBox="0 0 20.898 19.624">
  <path id="module-css" d="M11.489-5.271q-.283-.68-.75-1.727T9.733-9.263Q9.2-10.481,8.586-11.769T7.439-14.2Q6.9-15.352,6.434-16.258t-.75-1.388q-.311,3.341-.51,7.235t-.34,7.858H2.144Q2.257-5.1,2.4-7.692t.326-5.1q.184-2.506.4-4.885t.467-4.5H6q.765,1.246,1.642,2.945t1.756,3.554q.878,1.855,1.7,3.71t1.5,3.384q.68-1.529,1.5-3.384t1.7-3.71q.878-1.855,1.756-3.554t1.642-2.945H21.6q.963,9.486,1.444,19.624h-2.69q-.142-3.964-.34-7.858t-.51-7.235q-.283.481-.75,1.388T17.747-14.2q-.538,1.147-1.147,2.435T15.453-9.263Q14.915-8.046,14.448-7T13.7-5.271Z" transform="translate(-2.144 22.176)" fill="#5ae6c7"/>
</svg>
