<svg xmlns="http://www.w3.org/2000/svg" width="28.534" height="24.667" viewBox="0 0 28.534 24.667">
  <path id="mui" d="M24.051,17.57a.793.793,0,0,0,.4-.685l.014-4.587a.793.793,0,0,1,.4-.685l2.487-1.428a.793.793,0,0,1,1.187.687v8.339a.793.793,0,0,1-.4.687l-9.384,5.39a.793.793,0,0,1-.788,0L10.6,21.077a.793.793,0,0,1-.4-.688v-4.2a.007.007,0,0,1,.01-.006.006.006,0,0,0,.01-.006v0a.009.009,0,0,1,0-.008l6.065-3.484a.006.006,0,0,0,0-.012.006.006,0,0,1-.006-.006l.012-4.123a.793.793,0,0,0-1.189-.69l-4.508,2.6a.793.793,0,0,1-.791,0l-4.522-2.6A.793.793,0,0,0,4.1,8.526v7.451a.793.793,0,0,1-1.186.689L.4,15.231a.793.793,0,0,1-.4-.69L.023,1.518A.793.793,0,0,1,1.211.832l8.6,4.937a.793.793,0,0,0,.789,0L19.19.832a.793.793,0,0,1,1.187.688V14.547a.793.793,0,0,1-.4.687l-4.5,2.592a.793.793,0,0,0,0,1.375l2.483,1.413a.793.793,0,0,0,.787,0l5.3-3.043Zm.521-11.685a.793.793,0,0,0,1.2.679L28.15,5.137a.793.793,0,0,0,.385-.679V1.551a.793.793,0,0,0-1.2-.679L24.957,2.3a.793.793,0,0,0-.385.679V5.886Z" transform="translate(-0.001 -0.727)" fill="#5ae6c7" fill-rule="evenodd"/>
</svg>
