<svg xmlns="http://www.w3.org/2000/svg" width="44.659" height="23.063" viewBox="0 0 44.659 23.063">
  <g id="mysql" transform="translate(0 -0.003)">
    <path id="Path_11020" data-name="Path 11020" d="M0,71.5H1.471V65.692l2.278,5.065a1.256,1.256,0,0,0,1.358.83,1.237,1.237,0,0,0,1.344-.83l2.278-5.065V71.5H10.2V65.7a.884.884,0,0,0-.693-.981c-1.118-.349-1.867-.047-2.207.707l-2.235,5-2.165-5c-.325-.754-1.089-1.056-2.207-.707A.884.884,0,0,0,0,65.7Zm11.423-4.729h1.471v3.2c-.014.174.056.582.862.595.411.007,3.174,0,3.2,0V66.755h1.474c.007,0,0,5.2,0,5.22.008,1.282-1.591,1.56-2.327,1.582H11.455v-.99h4.654c.947-.1.835-.571.835-.729v-.386H13.817c-1.455-.013-2.381-.648-2.393-1.379,0-.065.031-3.27,0-3.3Z" transform="translate(0 -50.49)" fill="#5ae6c7"/>
    <path id="Path_11021" data-name="Path 11021" d="M89.716,71.976h4.23a3.263,3.263,0,0,0,1.359-.283,1.335,1.335,0,0,0,.948-1.207V69.411c0-.425-.354-.821-1.047-1.085a3.613,3.613,0,0,0-1.259-.217H92.164c-.594,0-.877-.179-.948-.575A.427.427,0,0,1,91.2,67.4v-.669a.392.392,0,0,1,.014-.123c.071-.3.226-.387.75-.436.043,0,.1-.01.142-.01h4.2v-.981H92.178a3.969,3.969,0,0,0-1.188.123c-.878.274-1.26.71-1.26,1.464v.858c0,.66.75,1.226,2.009,1.358.142.009.283.019.424.019h1.528a.774.774,0,0,1,.156.01c.467.038.665.123.806.292a.345.345,0,0,1,.113.262v.858a.491.491,0,0,1-.212.349,1.042,1.042,0,0,1-.623.208c-.057,0-.1.009-.155.009h-4.06v.981Zm15.714-1.707c0,1.009.75,1.575,2.263,1.688q.212.016.424.019h3.834v-.981H108.09c-.863,0-1.188-.217-1.188-.736V65.185H105.43v5.083Zm-8.239.051v-3.5c0-.888.624-1.427,1.857-1.6a2.821,2.821,0,0,1,.4-.028h2.793a3.026,3.026,0,0,1,.411.028c1.233.17,1.857.709,1.857,1.6v3.5a1.277,1.277,0,0,1-.876,1.358l1.449,1.308h-1.708L102.2,71.928l-1.18.075H99.445a3.261,3.261,0,0,1-.865-.123c-.938-.255-1.389-.747-1.389-1.56Zm1.588-.087a.65.65,0,0,0,.028.151c.087.406.468.633,1.047.633h1.337l-1.228-1.108h1.708l1.068.967a.689.689,0,0,0,.371-.473.482.482,0,0,0,.014-.142V66.909a.446.446,0,0,0-.014-.132c-.087-.378-.468-.6-1.035-.6H99.857c-.654,0-1.077.283-1.077.728v3.327Z" transform="translate(-70.152 -50.967)" fill="#5ae6c7"/>
    <g id="Group_3325" data-name="Group 3325" transform="translate(27.826 0.003)">
      <path id="Path_11022" data-name="Path 11022" d="M142.875,12.591a5.179,5.179,0,0,0-2.186.309c-.168.071-.435.073-.463.283.092.1.107.241.18.36a2.837,2.837,0,0,0,.592.694c.232.175.471.363.72.515.443.27.937.424,1.363.694.251.159.5.36.746.54.121.089.2.227.36.283v-.026c-.083-.105-.1-.25-.18-.36l-.334-.334a5.445,5.445,0,0,0-1.183-1.132c-.352-.253-1.139-.594-1.286-1l-.026-.026a5.73,5.73,0,0,0,.772-.18c.387-.1.732-.077,1.132-.18l.54-.154v-.1c-.2-.207-.346-.481-.566-.669a16.523,16.523,0,0,0-1.851-1.389c-.359-.227-.8-.374-1.183-.566-.128-.065-.353-.1-.437-.206a5.531,5.531,0,0,1-.463-.872c-.323-.621-.64-1.3-.926-1.954a10.594,10.594,0,0,0-.566-1.286,11.356,11.356,0,0,0-4.372-4.217,5.245,5.245,0,0,0-1.44-.463l-.849-.051a4.5,4.5,0,0,1-.515-.386c-.645-.408-2.3-1.294-2.777-.131-.3.736.451,1.453.72,1.826a5.513,5.513,0,0,1,.566.849c.089.193.1.387.18.592a13.767,13.767,0,0,0,.591,1.517,5.354,5.354,0,0,0,.411.694c.095.129.257.186.283.386a3.149,3.149,0,0,0-.257.849,4.926,4.926,0,0,0,.334,3.781c.179.288.6.905,1.183.669.508-.207.393-.848.54-1.414.033-.129.013-.222.077-.309v.026l.463.926a6.3,6.3,0,0,0,1.466,1.518c.267.2.48.551.823.669v-.026h-.026c-.067-.1-.172-.148-.257-.231a5.9,5.9,0,0,1-.592-.669,15.612,15.612,0,0,1-1.26-2.057c-.18-.346-.337-.728-.488-1.08-.058-.136-.058-.341-.18-.411a5.137,5.137,0,0,0-.54.772,6.6,6.6,0,0,0-.309,1.7c-.045.016-.025.005-.051.026-.358-.086-.484-.455-.617-.771a4.863,4.863,0,0,1-.1-3.009c.076-.238.423-.989.283-1.209-.067-.22-.288-.349-.411-.515a4.053,4.053,0,0,1-.411-.72c-.276-.624-.4-1.324-.694-1.954a5.588,5.588,0,0,0-.566-.872,5.148,5.148,0,0,1-.617-.872c-.059-.128-.139-.331-.051-.463a.2.2,0,0,1,.154-.154c.149-.115.565.038.72.1a6.288,6.288,0,0,1,1.106.566c.168.109.337.326.54.386h.231c.362.083.768.026,1.106.129a6.7,6.7,0,0,1,1.62.771,10.021,10.021,0,0,1,3.523,3.86c.133.256.191.5.309.771.237.545.536,1.111.771,1.646a7.68,7.68,0,0,0,.8,1.517c.175.233.85.359,1.157.488a6.821,6.821,0,0,1,.771.309c.389.235.766.515,1.132.772.183.129.744.411.771.643Z" transform="translate(-127.607 -0.003)" fill="#5ae6c7"/>
      <path id="Path_11023" data-name="Path 11023" d="M143.25,12.8a1.83,1.83,0,0,0-.463.051v.026h.026a3.513,3.513,0,0,0,.36.463l.257.54.026-.026a.627.627,0,0,0,.231-.566c-.064-.067-.073-.151-.129-.232-.073-.107-.218-.167-.309-.257Z" transform="translate(-139.477 -10.006)" fill="#5ae6c7" fill-rule="evenodd"/>
    </g>
    <path id="Path_11024" data-name="Path 11024" d="M194.855,87.82a1.084,1.084,0,1,0,1.084-1.084A1.07,1.07,0,0,0,194.855,87.82Zm1.925,0a.842.842,0,1,1-.842-.859A.839.839,0,0,1,196.78,87.82Zm-.55.619h.243l-.355-.543c.191-.02.335-.113.335-.338,0-.252-.159-.355-.465-.355h-.483v1.237h.208V87.9h.194l.324.535Zm-.518-.709v-.355h.24c.124,0,.275.023.275.168,0,.173-.136.188-.292.188h-.222Z" transform="translate(-152.365 -67.82)" fill="#5ae6c7" fill-rule="evenodd"/>
  </g>
</svg>
