<svg xmlns="http://www.w3.org/2000/svg" width="28.317" height="31.939" viewBox="0 0 28.317 31.939">
  <path id="node" d="M14.3-59.1a2.465,2.465,0,0,0,1.23-.33l11.706-6.756a2.48,2.48,0,0,0,1.23-2.136V-81.832a2.464,2.464,0,0,0-1.23-2.136L15.525-90.731a2.566,2.566,0,0,0-2.459,0L1.373-83.975A2.472,2.472,0,0,0,.144-81.839v13.506A2.464,2.464,0,0,0,1.373-66.2l3.068,1.768a4.977,4.977,0,0,0,2.694.735c2.2,0,3.467-1.331,3.467-3.651V-80.685a.339.339,0,0,0-.342-.336H8.776a.336.336,0,0,0-.342.336V-67.35c0,1.033-1.065,2.053-2.808,1.185L2.419-68.016a.35.35,0,0,1-.184-.311V-81.832a.37.37,0,0,1,.184-.323l11.693-6.756a.367.367,0,0,1,.361,0l11.7,6.75a.378.378,0,0,1,.184.323v13.512a.375.375,0,0,1-.177.317L14.473-61.254a.367.367,0,0,1-.361,0l-3-1.781a.286.286,0,0,0-.292-.025,7.7,7.7,0,0,1-1.768.8c-.19.063-.475.177.108.507l3.91,2.313A2.482,2.482,0,0,0,14.3-59.1Zm9.45-13.316c0-2.529-1.711-3.2-5.3-3.676-3.638-.482-4.006-.729-4.006-1.578,0-.7.311-1.642,3-1.642,2.4,0,3.289.52,3.657,2.142a.339.339,0,0,0,.33.266h1.521a.331.331,0,0,0,.247-.108.353.353,0,0,0,.089-.26c-.235-2.795-2.091-4.094-5.843-4.094-3.34,0-5.33,1.407-5.33,3.771,0,2.56,1.984,3.27,5.184,3.587,3.834.374,4.132.938,4.132,1.692,0,1.306-1.052,1.863-3.517,1.863-3.1,0-3.777-.78-4.006-2.32a.335.335,0,0,0-.336-.285H12.052a.334.334,0,0,0-.336.336c0,1.971,1.071,4.322,6.2,4.322C21.616-68.409,23.746-69.873,23.746-72.421Z" transform="translate(-0.144 91.044)" fill="#5ae6c7"/>
</svg>
