<svg width="26" height="22" viewBox="0 0 26 22" fill="none" xmlns="http://www.w3.org/2000/svg">
<path d="M7.73659 0.319886C8.19317 0.778994 8.2439 1.54417 7.78732 2.05429L4.13463 6.13526C3.93171 6.33931 3.62732 6.49234 3.2722 6.49234C2.9678 6.54335 2.61268 6.39032 2.40976 6.13526L0.380488 4.09478C-0.126829 3.63567 -0.126829 2.87049 0.380488 2.41138C0.837073 1.90126 1.59805 1.90126 2.05463 2.41138L3.22146 3.53364L6.01171 0.370898C6.46829 -0.0882105 7.22927 -0.139223 7.73659 0.319886ZM7.73659 8.48181C8.19317 8.88991 8.2439 9.7061 7.78732 10.2162L4.13463 14.2972C3.93171 14.5012 3.62732 14.6543 3.2722 14.6543C2.9678 14.7053 2.61268 14.5522 2.40976 14.2972L0.380488 12.2567C-0.126829 11.7976 -0.126829 11.0324 0.380488 10.5223C0.837073 10.0632 1.59805 10.0632 2.05463 10.5223L3.22146 11.6956L6.01171 8.53282C6.46829 8.07371 7.22927 8.0227 7.73659 8.48181ZM11.3893 3.22757C11.3893 2.36037 12.0995 1.59519 13.0127 1.59519H24.3766C25.239 1.59519 26 2.36037 26 3.22757C26 4.14579 25.239 4.85996 24.3766 4.85996H13.0127C12.0995 4.85996 11.3893 4.14579 11.3893 3.22757ZM11.3893 11.3895C11.3893 10.5223 12.0995 9.75711 13.0127 9.75711H24.3766C25.239 9.75711 26 10.5223 26 11.3895C26 12.3077 25.239 13.0219 24.3766 13.0219H13.0127C12.0995 13.0219 11.3893 12.3077 11.3893 11.3895ZM8.14244 19.5514C8.14244 18.6842 8.85268 17.919 9.76585 17.919H24.3766C25.239 17.919 26 18.6842 26 19.5514C26 20.4696 25.239 21.1838 24.3766 21.1838H9.76585C8.85268 21.1838 8.14244 20.4696 8.14244 19.5514ZM0.0253659 19.5514C0.0253659 18.2251 1.09073 17.1028 2.46049 17.1028C3.77951 17.1028 4.89561 18.2251 4.89561 19.5514C4.89561 20.9287 3.77951 22 2.46049 22C1.09073 22 0.0253659 20.9287 0.0253659 19.5514Z" fill="#5AE6C7"/>
</svg>
