<svg xmlns="http://www.w3.org/2000/svg" width="30" height="24.375" viewBox="0 0 30 24.375">
  <path id="organised" d="M4.47-17.215a.735.735,0,0,1-.678.287.741.741,0,0,1-.7-.223L.275-19.963a.936.936,0,0,1,0-1.325.937.937,0,0,1,1.326,0L3.687-19.2l4.03-4.836a.935.935,0,0,1,1.318-.12.94.94,0,0,1,.123,1.32Zm0,9.375a.735.735,0,0,1-.678.287.741.741,0,0,1-.7-.223L.275-10.588a.936.936,0,0,1,0-1.324.932.932,0,0,1,1.326,0L3.687-9.826l4.03-4.834a.894.894,0,0,1,1.318-.123.938.938,0,0,1,.123,1.318ZM11.2-20.625a.975.975,0,0,1,.938-.937H29.063a.939.939,0,0,1,.938.938.94.94,0,0,1-.937.938H12.135A.976.976,0,0,1,11.2-20.625Zm0,9.375a.976.976,0,0,1,.938-.937H29.063A.94.94,0,0,1,30-11.25a.94.94,0,0,1-.937.938H12.135A.976.976,0,0,1,11.2-11.25ZM9.322-1.875a.976.976,0,0,1,.938-.937h18.8A.94.94,0,0,1,30-1.875a.94.94,0,0,1-.937.938H10.26A.976.976,0,0,1,9.322-1.875ZM3.7,0A1.909,1.909,0,0,1,1.822-1.875,1.909,1.909,0,0,1,3.7-3.75,1.841,1.841,0,0,1,5.572-1.875,1.841,1.841,0,0,1,3.7,0Z" transform="translate(0 24.375)" fill="#5ae6c7"/>
</svg>
