<svg xmlns="http://www.w3.org/2000/svg" width="33.75" height="27" viewBox="0 0 33.75 27">
  <path id="pagespeed" d="M13.5,1.688A11.1,11.1,0,0,0,18.272.638a5.964,5.964,0,0,0,1.049,1.419A13.608,13.608,0,0,1,13.5,3.375,13.5,13.5,0,0,1,0-10.125a13.5,13.5,0,0,1,13.5-13.5A13.41,13.41,0,0,1,26.531-13.489c-.095-.005-.232-.011-.374-.011a9.727,9.727,0,0,0-1.308.09A11.812,11.812,0,0,0,13.5-21.937,11.813,11.813,0,0,0,1.688-10.125,11.813,11.813,0,0,0,13.5,1.688Zm-3.375-6.75a3.391,3.391,0,0,1,2.484-3.27V-18.61a.914.914,0,0,1,.844-.844.844.844,0,0,1,.844.844V-8.332a3.368,3.368,0,0,1,2.579,3.27A3.378,3.378,0,0,1,13.5-1.687,3.378,3.378,0,0,1,10.125-5.062ZM13.5-3.375a1.686,1.686,0,0,0,1.688-1.687A1.686,1.686,0,0,0,13.5-6.75a1.686,1.686,0,0,0-1.687,1.688A1.686,1.686,0,0,0,13.5-3.375ZM6.328-16.031A1.263,1.263,0,0,1,7.594-17.3a1.263,1.263,0,0,1,1.266,1.266,1.263,1.263,0,0,1-1.266,1.266A1.263,1.263,0,0,1,6.328-16.031Zm0,5.906A1.263,1.263,0,0,1,5.063-8.859,1.264,1.264,0,0,1,3.8-10.125a1.264,1.264,0,0,1,1.266-1.266A1.263,1.263,0,0,1,6.328-10.125Zm14.344-5.906a1.263,1.263,0,0,1-1.266,1.266,1.263,1.263,0,0,1-1.266-1.266A1.263,1.263,0,0,1,19.406-17.3,1.263,1.263,0,0,1,20.672-16.031Zm8.01,7.494a.708.708,0,0,1,.137.828L27.232-4.852h1.877a.63.63,0,0,1,.6.432.639.639,0,0,1-.221.707L24.427.084a.7.7,0,0,1-.8-.032.629.629,0,0,1-.137-.78L25.08-3.586H23.2a.63.63,0,0,1-.6-.432.575.575,0,0,1,.221-.707l5.063-3.8A.7.7,0,0,1,28.682-8.538ZM33.75-4.219a7.6,7.6,0,0,1-7.594,7.594,7.6,7.6,0,0,1-7.594-7.594,7.6,7.6,0,0,1,7.594-7.594A7.6,7.6,0,0,1,33.75-4.219Zm-7.594-5.906A5.9,5.9,0,0,0,20.25-4.219a5.9,5.9,0,0,0,5.906,5.906,5.9,5.9,0,0,0,5.906-5.906A5.9,5.9,0,0,0,26.156-10.125Z" transform="translate(0 23.625)" fill="#5ae6c7"/>
</svg>
