<svg xmlns="http://www.w3.org/2000/svg" width="29" height="29" viewBox="0 0 29 29">
  <path id="patterns" d="M24,29H5a5.006,5.006,0,0,1-5-5V5A5.006,5.006,0,0,1,5,0H24a5.006,5.006,0,0,1,5,5V24A5.005,5.005,0,0,1,24,29Zm0-13.152a1.106,1.106,0,0,0,.177.621,1.185,1.185,0,0,0,.526.425,1.924,1.924,0,0,0,.783.155,1.564,1.564,0,0,0,.964-.266.87.87,0,0,0,.352-.732,1.022,1.022,0,0,0-.576-.916,3.228,3.228,0,0,0-.606-.255,1.862,1.862,0,0,1-.515-.229.3.3,0,0,1-.013-.506.586.586,0,0,1,.363-.1.521.521,0,0,1,.36.12.431.431,0,0,1,.133.337H26.8a1.019,1.019,0,0,0-.168-.577,1.089,1.089,0,0,0-.472-.39,1.669,1.669,0,0,0-.688-.137,1.9,1.9,0,0,0-.707.126,1.121,1.121,0,0,0-.488.351.845.845,0,0,0-.172.521,1.041,1.041,0,0,0,.691.933,4.557,4.557,0,0,0,.547.217,1.658,1.658,0,0,1,.467.218.351.351,0,0,1,.133.293.3.3,0,0,1-.123.257.552.552,0,0,1-.336.092.7.7,0,0,1-.48-.136.544.544,0,0,1-.148-.42Zm-2.542-1.06,0,0L22.721,17h.851V13.445h-.854v2.212l-1.257-2.212H20.6V17h.857V14.788Zm-3.262.955h.464L19.29,17h.918v-.037l-.742-1.435a1.066,1.066,0,0,0,.47-.4,1.156,1.156,0,0,0,.15-.614.955.955,0,0,0-.356-.793,1.568,1.568,0,0,0-.989-.281h-1.4V17H18.2V15.744Zm-3.655-2.3V17h2.449v-.66H15.4v-.85h1.347v-.635H15.4v-.75H17v-.661Zm-3.333,0v.661h1.048V17h.857V14.107h1.066v-.661Zm-3.191,0v.661H9.068V17h.858V14.107h1.067v-.661ZM5.933,16.336H7.107L7.315,17h.92L6.922,13.445H6.116L4.812,17h.915l.2-.663ZM2.269,13.445V17h.857V15.794h.546a1.552,1.552,0,0,0,1.022-.311,1.036,1.036,0,0,0,.372-.832,1.166,1.166,0,0,0-.172-.628,1.131,1.131,0,0,0-.486-.427,1.659,1.659,0,0,0-.721-.15ZM6.9,15.674H6.138l.381-1.233L6.9,15.673Zm-3.215-.542H3.126V14.107H3.7a.475.475,0,0,1,.365.152.571.571,0,0,1,.135.4.465.465,0,0,1-.13.351A.53.53,0,0,1,3.687,15.133Zm15.053-.049H18.2V14.1h.542a.484.484,0,0,1,.366.13.505.505,0,0,1,.124.361.494.494,0,0,1-.123.359A.488.488,0,0,1,18.741,15.083Z" fill="#5ae6c7"/>
</svg>
