<svg id="photoshop" xmlns="http://www.w3.org/2000/svg" width="29" height="28" viewBox="0 0 29 28">
  <path id="Path_11017" data-name="Path 11017" d="M23.865,28H5.135A5.145,5.145,0,0,1,1.5,26.512a5.045,5.045,0,0,1-1.5-3.6V5.085a5.045,5.045,0,0,1,1.5-3.6A5.145,5.145,0,0,1,5.135,0H23.865A5.145,5.145,0,0,1,27.5,1.488a5.045,5.045,0,0,1,1.5,3.6V22.915a5.045,5.045,0,0,1-1.5,3.6A5.145,5.145,0,0,1,23.865,28ZM17.043,17.074a.073.073,0,0,0-.042.013.13.13,0,0,0-.048.108v2.082a.234.234,0,0,0,.133.227,4.932,4.932,0,0,0,1.232.383,8.364,8.364,0,0,0,1.643.156,5.618,5.618,0,0,0,2.187-.383A3.012,3.012,0,0,0,23.5,18.595,2.77,2.77,0,0,0,23.973,17a2.548,2.548,0,0,0-.278-1.233,2.785,2.785,0,0,0-.955-.993A8.768,8.768,0,0,0,20.88,13.9c-.309-.127-.6-.26-.858-.395a1.347,1.347,0,0,1-.411-.323.528.528,0,0,1-.121-.311.633.633,0,0,1,.1-.323.623.623,0,0,1,.375-.239,2.549,2.549,0,0,1,.63-.086l.095,0a6.424,6.424,0,0,1,1.353.156,4.275,4.275,0,0,1,1.16.407.188.188,0,0,0,.086.018.628.628,0,0,0,.131-.018.147.147,0,0,0,.06-.12v-1.95a.6.6,0,0,0-.024-.143.211.211,0,0,0-.121-.108,4.277,4.277,0,0,0-1.039-.275,10.481,10.481,0,0,0-1.5-.108,4.7,4.7,0,0,0-2.139.419,2.95,2.95,0,0,0-1.269,1.1,2.78,2.78,0,0,0-.411,1.448,2.557,2.557,0,0,0,.278,1.221,3.129,3.129,0,0,0,.918,1.017,7.376,7.376,0,0,0,1.716.862,5,5,0,0,1,1.184.562.634.634,0,0,1,.29.479.552.552,0,0,1-.326.5,2.351,2.351,0,0,1-1,.168,5.657,5.657,0,0,1-1.426-.18,5.183,5.183,0,0,1-1.5-.586A.124.124,0,0,0,17.043,17.074ZM10.392,7.12c-.356,0-.725,0-1.1.012-.184.006-.365.009-.526.012-.184,0-.357.006-.526.012s-.313.009-.461.012-.307.006-.457.012c-.278.012-.472.012-.677.012-.081,0-.121.043-.121.132V19.636c0,.106.046.156.145.156H9.014a.16.16,0,0,0,.1-.057.142.142,0,0,0,.03-.111V15.783h.005c.229,0,.395,0,.514.012s.313.012.6.012A7.8,7.8,0,0,0,12.99,15.4a4.131,4.131,0,0,0,1.945-1.46,4.266,4.266,0,0,0,.725-2.549,4.514,4.514,0,0,0-.278-1.556A3.823,3.823,0,0,0,14.5,8.472a4.34,4.34,0,0,0-1.619-.981A7.143,7.143,0,0,0,10.392,7.12Zm-.121,6.426H9.63c-.135,0-.281-.01-.435-.021l-.036,0V9.5a2.234,2.234,0,0,1,.3-.017c.063,0,.128,0,.193,0,.23-.012.5-.012.822-.012h.1a3.533,3.533,0,0,1,1.321.241,1.748,1.748,0,0,1,.846.682,1.947,1.947,0,0,1,.278,1.065,1.832,1.832,0,0,1-.375,1.233,2.08,2.08,0,0,1-.991.634A4.539,4.539,0,0,1,10.271,13.545Z" transform="translate(0)" fill="#5ae6c7"/>
</svg>
