<svg xmlns="http://www.w3.org/2000/svg" width="44.659" height="23.488" viewBox="0 0 44.659 23.488">
  <path id="php" d="M22.329-72.717c11.96,0,21.157,5.038,21.157,10.572s-9.2,10.572-21.157,10.572S1.172-56.612,1.172-62.146,10.376-72.717,22.329-72.717Zm0-1.172C10-73.89,0-68.635,0-62.146S10-50.4,22.329-50.4s22.329-5.254,22.329-11.744S34.659-73.89,22.329-73.89Zm-7.1,10.8c-.551,2.826-2.5,2.533-4.892,2.533l.956-4.926C13.942-65.481,15.742-65.767,15.226-63.088ZM6.8-55.566H9.357l.607-3.126c2.868,0,4.647.209,6.294-1.333,1.821-1.675,2.3-4.654,1-6.148a4.083,4.083,0,0,0-3.245-1.165H9.078Zm12.958-14.9L17.473-58.706H20.02l1.312-6.741c2.072,0,2.931-.084,3.307.321s.188.879-.886,6.42h2.582c1.116-5.729,1.612-6.943.579-7.892-.984-.907-3.021-.747-5.219-.747L22.3-70.47Zm15.484,7.383c-.558,2.868-2.561,2.533-4.891,2.533l.956-4.926C33.969-65.481,35.755-65.767,35.238-63.088Zm-8.429,7.522h2.568l.607-3.126c3.014,0,4.682.174,6.294-1.333,1.821-1.675,2.3-4.654,1-6.148a4.083,4.083,0,0,0-3.245-1.165H29.1Z" transform="translate(0 73.89)" fill="#5ae6c7"/>
</svg>
