<svg xmlns="http://www.w3.org/2000/svg" width="32.361" height="28.317" viewBox="0 0 32.361 28.317">
  <g id="react" transform="translate(-2.704 -4.055)">
    <path id="Path_10922" d="M26.432-51.759q-.512-.171-1.024-.322c.057-.234.107-.468.158-.7.777-3.767.265-6.795-1.46-7.793-1.662-.954-4.374.038-7.117,2.427-.272.234-.537.48-.79.727-.171-.164-.348-.329-.525-.487-2.876-2.554-5.758-3.628-7.483-2.623-1.656.961-2.149,3.811-1.454,7.376.07.354.145.7.234,1.056-.4.114-.8.24-1.176.373C2.421-50.558,0-48.713,0-46.8c0,1.972,2.579,3.95,6.087,5.151.284.095.569.19.86.272-.095.379-.177.752-.253,1.138C6.03-36.735,6.548-33.954,8.2-33c1.707.986,4.576-.025,7.37-2.471.221-.2.442-.4.664-.613.278.272.569.531.86.784,2.705,2.326,5.379,3.268,7.028,2.313,1.707-.986,2.263-3.976,1.542-7.616q-.085-.417-.19-.853c.2-.057.4-.12.594-.183,3.647-1.207,6.289-3.16,6.289-5.164C32.361-48.719,29.871-50.577,26.432-51.759Zm-8.552-5.366c2.351-2.048,4.544-2.851,5.543-2.275,1.068.613,1.479,3.091.809,6.346-.044.215-.089.423-.145.632a32.354,32.354,0,0,0-4.254-.67,31.942,31.942,0,0,0-2.693-3.356C17.388-56.683,17.628-56.9,17.881-57.125Zm-7.313,13.6c.322.55.651,1.1,1,1.637a28.63,28.63,0,0,1-2.933-.474,29.518,29.518,0,0,1,1.03-2.813C9.955-44.617,10.252-44.067,10.568-43.523Zm-1.915-7.6c.91-.2,1.877-.367,2.882-.493-.335.525-.664,1.062-.973,1.605s-.613,1.087-.9,1.643C9.266-49.313,8.931-50.236,8.653-51.127Zm1.732,4.355c.417-.872.872-1.725,1.353-2.566s1-1.656,1.542-2.459c.948-.07,1.915-.107,2.9-.107s1.959.038,2.9.107q.806,1.195,1.536,2.446T21.989-46.8q-.635,1.308-1.365,2.579c-.48.841-.992,1.656-1.53,2.465-.942.069-1.921.1-2.914.1s-1.953-.032-2.882-.088q-.825-1.2-1.555-2.465C11.257-45.047,10.808-45.9,10.385-46.772ZM21.8-43.536c.322-.556.626-1.119.923-1.688a29.338,29.338,0,0,1,1.068,2.8,27.774,27.774,0,0,1-2.971.506C21.161-42.449,21.483-42.993,21.8-43.536Zm.91-4.835c-.3-.556-.6-1.112-.916-1.656s-.632-1.068-.967-1.593a29.075,29.075,0,0,1,2.9.506A27.974,27.974,0,0,1,22.71-48.371Zm-6.516-7.111a27.768,27.768,0,0,1,1.871,2.263c-1.251-.057-2.509-.057-3.761,0C14.923-54.034,15.561-54.793,16.193-55.482ZM8.861-59.356c1.062-.619,3.419.265,5.9,2.465.158.139.316.291.48.442a32.12,32.12,0,0,0-2.712,3.356,33.314,33.314,0,0,0-4.247.657c-.082-.322-.152-.651-.221-.98C7.471-56.474,7.863-58.781,8.861-59.356ZM7.313-42.7c-.265-.076-.525-.158-.784-.246a12.891,12.891,0,0,1-3.982-1.972A2.836,2.836,0,0,1,1.359-46.8c0-1.157,2-2.636,4.879-3.641.36-.126.727-.24,1.093-.348a33.6,33.6,0,0,0,1.549,4.02A34.548,34.548,0,0,0,7.313-42.7Zm7.37,6.194a11.568,11.568,0,0,1-3.565,2.231,2.8,2.8,0,0,1-2.231.082C7.882-34.77,7.464-37,8.033-40c.07-.354.145-.708.234-1.056a31.623,31.623,0,0,0,4.292.619,33.354,33.354,0,0,0,2.73,3.375C15.087-36.868,14.885-36.678,14.683-36.5Zm1.549-1.536c-.645-.7-1.289-1.466-1.915-2.294.607.025,1.232.038,1.865.038.651,0,1.289-.013,1.921-.044A27.262,27.262,0,0,1,16.231-38.037Zm8.261,1.9a2.809,2.809,0,0,1-1.043,1.978c-1,.581-3.148-.177-5.461-2.162-.265-.228-.531-.474-.8-.727a31.269,31.269,0,0,0,2.667-3.388,31.146,31.146,0,0,0,4.311-.664c.063.259.12.518.171.771A11.521,11.521,0,0,1,24.492-36.141Zm1.15-6.795c-.177.057-.354.114-.537.164A32.112,32.112,0,0,0,23.493-46.8a31.947,31.947,0,0,0,1.549-3.976c.329.095.645.2.948.3C28.935-49.471,31-47.967,31-46.816,31-45.578,28.8-43.979,25.642-42.936Zm-9.462-.948a2.894,2.894,0,0,0,2.895-2.895,2.894,2.894,0,0,0-2.895-2.895,2.894,2.894,0,0,0-2.895,2.895A2.894,2.894,0,0,0,16.18-43.884Z" transform="translate(2.704 64.991)" fill="#5ae6c7"/>
  </g>
</svg>
