<svg xmlns="http://www.w3.org/2000/svg" width="28.616" height="27.166" viewBox="0 0 28.616 27.166">
  <g id="redux" transform="translate(-828.384 -3007.922)">
    <path id="Path_10941" data-name="Path 10941" d="M30.978,54.336a2.045,2.045,0,0,0-.218-4.078h-.073A2.037,2.037,0,0,0,28.72,52.37a2.091,2.091,0,0,0,.583,1.347,13.026,13.026,0,0,1-5.972,5.717A9.848,9.848,0,0,1,17.4,60.563a5.062,5.062,0,0,1-3.714-2.148,5.349,5.349,0,0,1-.291-5.644,8.572,8.572,0,0,1,2.476-2.913c-.146-.473-.364-1.275-.473-1.857-5.28,3.824-4.734,8.995-3.132,11.434a7.542,7.542,0,0,0,6.336,2.95,8.952,8.952,0,0,0,2.185-.255A13.974,13.974,0,0,0,30.978,54.336Z" transform="translate(817.234 2972.558)" fill="#5ae6c7"/>
    <path id="Path_10942" data-name="Path 10942" d="M55.411,42.318A14.788,14.788,0,0,0,43.9,37.292h-.583A2,2,0,0,0,41.537,36.2h-.073a2.04,2.04,0,0,0,.073,4.078h.073a2.051,2.051,0,0,0,1.784-1.238h.655a13.879,13.879,0,0,1,7.756,2.367,9.755,9.755,0,0,1,3.86,4.661,5.047,5.047,0,0,1-.073,4.3A5.346,5.346,0,0,1,50.6,53.351a9.314,9.314,0,0,1-3.569-.765c-.4.364-1.129.947-1.639,1.311a11.241,11.241,0,0,0,4.7,1.129,7.905,7.905,0,0,0,7.065-3.86c1.056-2.112.983-5.754-1.748-8.849Z" transform="translate(799.209 2980.061)" fill="#5ae6c7"/>
    <path id="Path_10943" data-name="Path 10943" d="M28.869,32.891a2.045,2.045,0,0,0,2.039,1.966h.073a2.04,2.04,0,0,0-.073-4.078h-.073a.62.62,0,0,0-.255.036,13.343,13.343,0,0,1-1.894-8.084,9.769,9.769,0,0,1,2.148-5.644,6.317,6.317,0,0,1,4.479-2.039c3.86-.073,5.5,4.734,5.608,6.664.473.109,1.275.364,1.821.546-.437-5.9-4.078-8.958-7.574-8.958a8.239,8.239,0,0,0-7.5,5.863,14.9,14.9,0,0,0,1.457,12.672A1.636,1.636,0,0,0,28.869,32.891Z" transform="translate(807.253 2994.622)" fill="#5ae6c7"/>
  </g>
</svg>
