<svg xmlns="http://www.w3.org/2000/svg" width="32.498" height="26" viewBox="0 0 32.498 26">
  <path id="responsibility" d="M32.119-12.873a.809.809,0,0,1,.254,1.117.809.809,0,0,1-1.117.254L16.25-20.977l-15,9.475a.812.812,0,0,1-1.121-.254.809.809,0,0,1,.253-1.117l15.44-9.751a.8.8,0,0,1,.863,0ZM18.688-13a2.438,2.438,0,0,1-2.437,2.438A2.438,2.438,0,0,1,13.813-13a2.438,2.438,0,0,1,2.438-2.437A2.438,2.438,0,0,1,18.688-13Zm-2.437-.812a.815.815,0,0,0-.812.813.815.815,0,0,0,.813.813A.815.815,0,0,0,17.063-13,.815.815,0,0,0,16.25-13.812Zm5,10.583-2.153-3.5v4.291A1.623,1.623,0,0,1,17.469-.812H15.031a1.623,1.623,0,0,1-1.625-1.625V-6.729l-2.153,3.5a.178.178,0,0,1-.025.041c.061.081.112.162.168.249l2.3,3.732a.818.818,0,0,1-.264,1.117.809.809,0,0,1-1.117-.264l-2.153-3.5V1.625A1.623,1.623,0,0,1,8.531,3.25H6.094A1.623,1.623,0,0,1,4.469,1.625V-1.854l-2.152,3.5A.813.813,0,0,1,.933.792l2.3-3.732A4,4,0,0,1,6.693-4.875H7.932a3.673,3.673,0,0,1,2.077.569l2.158-3.509A4.01,4.01,0,0,1,15.63-9.75H16.87a4.066,4.066,0,0,1,3.463,1.935l2.158,3.509a3.684,3.684,0,0,1,2.077-.569h1.239A4.066,4.066,0,0,1,29.27-2.94l2.3,3.732A.818.818,0,0,1,31.3,1.909a.809.809,0,0,1-1.117-.264l-2.153-3.5V1.625A1.623,1.623,0,0,1,26.406,3.25H23.969a1.623,1.623,0,0,1-1.625-1.625V-1.854l-2.153,3.5a.809.809,0,0,1-1.117.264A.818.818,0,0,1,18.809.792L21.1-2.94c.056-.086.112-.168.168-.249A.178.178,0,0,1,21.247-3.23Zm-3.778.792V-8.049a2.335,2.335,0,0,0-.6-.076H15.63a2.364,2.364,0,0,0-.6.076v5.611ZM6.094-3.174v4.8H8.531v-4.8a2.335,2.335,0,0,0-.6-.076H6.693A2.364,2.364,0,0,0,6.094-3.174Zm20.313,4.8v-4.8a2.335,2.335,0,0,0-.6-.076H24.568a2.364,2.364,0,0,0-.6.076v4.8ZM4.875-8.125a2.438,2.438,0,0,1,2.438-2.437A2.438,2.438,0,0,1,9.75-8.125,2.438,2.438,0,0,1,7.313-5.687,2.438,2.438,0,0,1,4.875-8.125Zm2.438.813a.815.815,0,0,0,.813-.812.815.815,0,0,0-.812-.812.815.815,0,0,0-.812.813A.815.815,0,0,0,7.313-7.312Zm20.313-.812a2.438,2.438,0,0,1-2.437,2.438A2.438,2.438,0,0,1,22.75-8.125a2.438,2.438,0,0,1,2.438-2.437A2.438,2.438,0,0,1,27.625-8.125Zm-2.437-.812a.815.815,0,0,0-.812.813.815.815,0,0,0,.813.813A.815.815,0,0,0,26-8.125.815.815,0,0,0,25.188-8.937Z" transform="translate(0 22.75)" fill="#5ae6c7"/>
</svg>
