<svg width="28" height="22" viewBox="0 0 28 22" fill="none" xmlns="http://www.w3.org/2000/svg">
<path d="M27.2894 7.03226C27.9462 7.41935 28.2089 8.27957 27.8148 8.92473C27.4645 9.56989 26.5888 9.82796 25.932 9.44086L13.9781 2.94624L2.06801 9.44086C1.4112 9.82796 0.535456 9.56989 0.185159 8.92473C-0.208925 8.27957 0.0537977 7.41935 0.710605 7.03226L13.3213 0.193548C13.7592 -0.0645161 14.2408 -0.0645161 14.6787 0.193548L27.2894 7.03226ZM12.2266 8.58065C12.2266 7.63441 13.0148 6.86022 13.9781 6.86022C14.9852 6.86022 15.7296 7.63441 15.7296 8.58065C15.7296 9.56989 14.9852 10.3011 13.9781 10.3011C13.0148 10.3011 12.2266 9.56989 12.2266 8.58065ZM4.52009 12.7097C4.52009 11.7634 5.30825 10.9892 6.27157 10.9892C7.27867 10.9892 8.02306 11.7634 8.02306 12.7097C8.02306 13.6989 7.27867 14.4301 6.27157 14.4301C5.30825 14.4301 4.52009 13.6989 4.52009 12.7097ZM23.4361 12.7097C23.4361 13.6989 22.6917 14.4301 21.6846 14.4301C20.7213 14.4301 19.9332 13.6989 19.9332 12.7097C19.9332 11.7634 20.7213 10.9892 21.6846 10.9892C22.6917 10.9892 23.4361 11.7634 23.4361 12.7097ZM9.9059 21.1398L8.72365 18.9892V20.6237C8.72365 21.3978 8.11063 22 7.32246 22H5.22068C4.4763 22 3.81949 21.3978 3.81949 20.6237V18.9892L2.68103 21.1398C2.37452 21.6129 1.7615 21.828 1.23605 21.5699C0.710605 21.2688 0.535456 20.6667 0.798179 20.1505L2.46209 17.1398C3.16268 15.8925 4.43251 15.1183 5.87749 15.1183H6.70944C7.45382 15.1183 8.11063 15.3333 8.72365 15.6774L10.1686 13.0108C10.8692 11.7634 12.139 10.9892 13.584 10.9892H14.416C15.861 10.9892 17.1308 11.7634 17.8314 13.0108L19.2764 15.6774C19.8894 15.3333 20.5462 15.1183 21.2906 15.1183H22.1225C23.5675 15.1183 24.8373 15.8925 25.5379 17.1398L27.2018 20.1505C27.4645 20.6667 27.2894 21.2688 26.764 21.5699C26.2385 21.828 25.6255 21.6129 25.319 21.1398L24.1367 18.9892V20.6237C24.1367 21.3978 23.5237 22 22.7355 22H20.6338C19.8894 22 19.2326 21.3978 19.2326 20.6237V18.9892L18.0941 21.1398C17.7876 21.6129 17.1746 21.828 16.6491 21.5699C16.1237 21.2688 15.9485 20.6667 16.2113 20.1505L17.8314 17.2688C17.7438 17.1828 17.7 17.0968 17.6124 17.0108L16.4302 14.8602V17.1828C16.4302 17.957 15.8172 18.5591 15.029 18.5591H12.9272C12.1828 18.5591 11.526 17.957 11.526 17.1828V14.8602L10.3876 17.0108C10.3 17.0968 10.2562 17.1828 10.1686 17.2688L11.7887 20.1505C12.0515 20.6667 11.8763 21.2688 11.3509 21.5699C10.8254 21.828 10.2124 21.6129 9.9059 21.1398Z" fill="#5AE6C7"/>
</svg>
