<svg xmlns="http://www.w3.org/2000/svg" width="26.25" height="26.25" viewBox="0 0 26.25 26.25">
  <path id="result" d="M8.438-12.187v7.5A.94.94,0,0,1,7.5-3.75a.94.94,0,0,1-.937-.937v-7.5a.94.94,0,0,1,.938-.937A.94.94,0,0,1,8.438-12.187Zm3.75-5.625a.94.94,0,0,1,.938-.937.94.94,0,0,1,.938.938V-4.687a.94.94,0,0,1-.937.938.94.94,0,0,1-.937-.937Zm7.5,9.375v3.75a.94.94,0,0,1-.937.938.94.94,0,0,1-.937-.937v-3.75a.94.94,0,0,1,.938-.937A.94.94,0,0,1,19.688-8.437ZM0-20.625a3.75,3.75,0,0,1,3.75-3.75H22.5a3.752,3.752,0,0,1,3.75,3.75v18.75a3.753,3.753,0,0,1-3.75,3.75H3.75A3.752,3.752,0,0,1,0-1.875Zm1.875,0v18.75A1.874,1.874,0,0,0,3.75,0H22.5a1.873,1.873,0,0,0,1.875-1.875v-18.75A1.874,1.874,0,0,0,22.5-22.5H3.75A1.875,1.875,0,0,0,1.875-20.625Z" transform="translate(0 24.375)" fill="#5ae6c7"/>
</svg>
