<svg width="26" height="26" viewBox="0 0 26 26" fill="none" xmlns="http://www.w3.org/2000/svg">
<path d="M9.28572 2.78571C9.28572 1.27679 10.5045 0 12.0714 0H13.9286C15.4375 0 16.7143 1.27679 16.7143 2.78571V23.2143C16.7143 24.7813 15.4375 26 13.9286 26H12.0714C10.5045 26 9.28572 24.7813 9.28572 23.2143V2.78571ZM0 13.9286C0 12.4196 1.21875 11.1429 2.78571 11.1429H4.64286C6.15179 11.1429 7.42857 12.4196 7.42857 13.9286V23.2143C7.42857 24.7813 6.15179 26 4.64286 26H2.78571C1.21875 26 0 24.7813 0 23.2143V13.9286ZM23.2143 3.71429C24.7232 3.71429 26 4.99107 26 6.5V23.2143C26 24.7813 24.7232 26 23.2143 26H21.3571C19.7902 26 18.5714 24.7813 18.5714 23.2143V6.5C18.5714 4.99107 19.7902 3.71429 21.3571 3.71429H23.2143Z" fill="#5AE6C7"/>
</svg>
