<svg width="28" height="28" viewBox="0 0 28 28" fill="none" xmlns="http://www.w3.org/2000/svg">
<path fill-rule="evenodd" clip-rule="evenodd" d="M28 14C28 21.732 21.732 28 14 28C6.26801 28 0 21.732 0 14C0 6.26801 6.26801 0 14 0C21.732 0 28 6.26801 28 14ZM9.88206 14.5242C10.9391 14.5242 11.796 13.6673 11.796 12.6102C11.796 11.5532 10.9391 10.6963 9.88206 10.6963C8.82504 10.6963 7.96815 11.5532 7.96815 12.6102C7.96815 13.6673 8.82504 14.5242 9.88206 14.5242ZM5.35826 18.352C6.41528 18.352 7.27217 17.4951 7.27217 16.4381C7.27217 15.3811 6.41528 14.5242 5.35826 14.5242C4.30123 14.5242 3.44434 15.3811 3.44434 16.4381C3.44434 17.4951 4.30123 18.352 5.35826 18.352ZM22.6415 18.352C23.6986 18.352 24.5554 17.4951 24.5554 16.4381C24.5554 15.3811 23.6986 14.5242 22.6415 14.5242C21.5845 14.5242 20.7276 15.3811 20.7276 16.4381C20.7276 17.4951 21.5845 18.352 22.6415 18.352ZM16.3483 12.614C16.3507 12.6395 16.3531 12.6651 16.3556 12.6909C16.3556 13.3055 16.2717 13.7795 15.8753 14.0867C15.5218 14.3607 15.1049 14.3905 14.6427 14.4235C14.2065 14.4547 13.7298 14.4888 13.2278 14.7338C12.5635 15.0391 12.1032 15.7022 12.1032 16.4711C12.1032 17.5295 12.9755 18.3876 14.0515 18.3876C14.8082 18.3876 15.4642 17.9633 15.7869 17.3434C16.0447 16.9165 16.1088 16.5 16.1669 16.1225C16.2369 15.6675 16.2983 15.2692 16.6796 14.9781C17.0284 14.7117 17.4032 14.6923 17.8185 14.6708C18.1417 14.654 18.4894 14.636 18.8683 14.4993C19.7188 14.2935 20.3497 13.5383 20.3497 12.6382C20.3497 12.2538 20.2346 11.8958 20.0365 11.5957C19.8384 11.2957 19.5572 11.0536 19.2251 10.901C18.7231 10.6559 18.2464 10.6219 17.8102 10.5906C17.348 10.5576 16.9311 10.5278 16.5776 10.2538C16.2574 10.0056 16.2052 9.62251 16.1452 9.18153C16.0965 8.82333 16.0426 8.42696 15.8355 8.0337C15.5337 7.35954 14.8485 6.88888 14.0515 6.88888C12.9755 6.88888 12.1032 7.7469 12.1032 8.80532C12.1032 9.70544 12.7341 10.4606 13.5846 10.6664C13.9635 10.8031 14.3112 10.8212 14.6344 10.8379C15.0497 10.8594 15.4245 10.8788 15.7733 11.1452C16.2434 11.5041 16.2911 12.0088 16.3483 12.614Z" fill="#5AE6C7"/>
</svg>
