<svg xmlns="http://www.w3.org/2000/svg" width="31.25" height="23.439" viewBox="0 0 31.25 23.439">
  <path id="sasss" d="M14.738-3.373C14.709-3.32,14.724-3.344,14.738-3.373ZM26.9-7.621h0a7.6,7.6,0,0,0-2.83.659,6.016,6.016,0,0,1-.635-1.47,3.923,3.923,0,0,1-.054-1.235A10.4,10.4,0,0,1,23.753-11c0-.054-.068-.322-.7-.327s-1.172.122-1.235.288a7.229,7.229,0,0,0-.259.933,22.624,22.624,0,0,1-1.909,3.677A3.791,3.791,0,0,1,19.218-7.5a3.922,3.922,0,0,1-.054-1.235,10.4,10.4,0,0,1,.371-1.328c0-.054-.068-.322-.7-.327s-1.172.122-1.235.288-.132.557-.259.933-1.655,3.774-2.055,4.658c-.205.449-.381.811-.508,1.055-.02.039-.034.063-.044.083.015-.024.024-.049.024-.039-.107.21-.171.327-.171.327v0c-.083.156-.176.3-.22.3a2.025,2.025,0,0,1,.015-.972c.23-1.182.771-3.018.767-3.081,0-.034.1-.352-.356-.522a.575.575,0,0,0-.644.107c-.039,0-.068.1-.068.1s.493-2.07-.947-2.07a4.3,4.3,0,0,0-2.763,1.88c-.386.21-1.221.664-2.1,1.147l-1.011.557c-.024-.024-.044-.049-.068-.073C5.447-7.577,2.221-8.9,2.357-11.4c.049-.913.366-3.311,6.2-6.221,4.785-2.383,8.611-1.729,9.27-.273.947,2.075-2.045,5.938-7.015,6.494a3.741,3.741,0,0,1-3.139-.8c-.259-.288-.3-.3-.4-.249-.161.088-.059.342,0,.493a2.942,2.942,0,0,0,1.8,1.411,9.514,9.514,0,0,0,5.819-.576c3.017-1.162,5.365-4.4,4.676-7.109-.7-2.754-5.268-3.657-9.585-2.124a21.72,21.72,0,0,0-7.356,4.219C.255-13.905-.126-11.967.031-11.156.587-8.28,4.551-6.405,6.137-5.019c-.078.044-.151.083-.22.122-.8.4-3.817,1.978-4.574,3.647C.489.645,1.485,2,2.139,2.188A4.875,4.875,0,0,0,7.392.06,5.287,5.287,0,0,0,7.86-4.8c0-.015-.015-.024-.02-.039.205-.122.415-.244.625-.366.4-.239.8-.459,1.147-.649a7.584,7.584,0,0,0-.41,2.08,4.322,4.322,0,0,0,.933,3.013,1.025,1.025,0,0,0,.751.244c.674,0,.977-.557,1.313-1.221.415-.811.781-1.753.781-1.753s-.459,2.549.8,2.549c.458,0,.917-.591,1.123-.894v0s.01-.02.034-.059c.049-.073.073-.117.073-.117v-.015c.186-.317.591-1.045,1.2-2.246C17-5.819,17.755-7.758,17.755-7.758a11.858,11.858,0,0,0,.3,1.26,11.791,11.791,0,0,0,.654,1.465c-.186.254-.3.4-.3.4a.018.018,0,0,0,0,.01c-.146.2-.313.405-.483.61a17.231,17.231,0,0,0-1.465,1.836.5.5,0,0,0,.137.669,1.187,1.187,0,0,0,.766.122,3.386,3.386,0,0,0,1.147-.264,4.815,4.815,0,0,0,.986-.518,2.2,2.2,0,0,0,.947-1.943A4.044,4.044,0,0,0,20.1-5.487c.054-.078.112-.161.166-.244a25.958,25.958,0,0,0,1.713-2.96,11.858,11.858,0,0,0,.3,1.26,8.61,8.61,0,0,0,.556,1.255,5.367,5.367,0,0,0-1.665,2.153c-.361,1.04-.078,1.509.454,1.616a1.638,1.638,0,0,0,.835-.171,4.648,4.648,0,0,0,1.054-.542,2.359,2.359,0,0,0,1.162-1.934A3.633,3.633,0,0,0,24.413-6.2a5.96,5.96,0,0,1,3.032-.352c2.719.317,3.251,2.017,3.148,2.725A1.805,1.805,0,0,1,29.729-2.6c-.19.117-.249.161-.234.249.024.127.112.122.273.093a2.121,2.121,0,0,0,1.479-1.89C31.325-5.811,29.73-7.636,26.9-7.621ZM5.947-.556C5.049.426,3.789.8,3.248.484,2.667.146,2.9-1.3,4-2.344A14.469,14.469,0,0,1,6.123-3.926c.132-.078.322-.2.557-.337.039-.024.059-.034.059-.034.044-.029.093-.054.142-.083A3.9,3.9,0,0,1,5.947-.556Zm6.561-4.463c-.313.767-.971,2.72-1.372,2.617-.342-.088-.552-1.577-.068-3.042A6.735,6.735,0,0,1,12.137-7.4c.493-.552,1.035-.728,1.162-.508C13.469-7.621,12.7-5.5,12.507-5.019Zm5.42,2.588c-.132.068-.254.112-.313.078s.054-.117.054-.117.679-.728.947-1.06c.156-.2.337-.425.532-.679,0,.024,0,.049,0,.078A2.263,2.263,0,0,1,17.927-2.431Zm4.179-.952c-.1-.068-.083-.3.244-1.011a3.8,3.8,0,0,1,.928-1.2,2.12,2.12,0,0,1,.093.527A1.722,1.722,0,0,1,22.106-3.383Z" transform="translate(0 21.094)" fill="#5ae6c7"/>
</svg>
