<svg xmlns="http://www.w3.org/2000/svg" width="33.75" height="23.625" viewBox="0 0 33.75 23.625">
  <path id="seosoft" d="M19.654-7.842a.843.843,0,0,0,.6.248.84.84,0,0,0,.6-.247l3.375-3.375a.843.843,0,0,0,0-1.193l-3.375-3.375a.843.843,0,0,0-1.193,0,.844.844,0,0,0,0,1.193l2.78,2.778L19.655-9.034A.837.837,0,0,0,19.654-7.842ZM14.1-15.783a.843.843,0,0,0-1.193,0L9.528-12.408a.843.843,0,0,0,0,1.193L12.9-7.841a.851.851,0,0,0,.6.247.84.84,0,0,0,.6-.247.843.843,0,0,0,0-1.193l-2.78-2.779L14.1-14.591A.837.837,0,0,0,14.1-15.783ZM4.219-5.062a.845.845,0,0,0,.844-.844V-18.562A1.689,1.689,0,0,1,6.75-20.25H27a1.689,1.689,0,0,1,1.688,1.688V-5.906a.843.843,0,0,0,.844.844.843.843,0,0,0,.844-.844V-18.562A3.379,3.379,0,0,0,27-21.937H6.75a3.379,3.379,0,0,0-3.375,3.375V-5.906A.845.845,0,0,0,4.219-5.062ZM32.906-3.375H.844A.851.851,0,0,0,0-2.531v.844A3.382,3.382,0,0,0,3.375,1.688h27A3.382,3.382,0,0,0,33.75-1.687v-.844A.85.85,0,0,0,32.906-3.375ZM30.375,0h-27A1.69,1.69,0,0,1,1.688-1.687H32.063A1.692,1.692,0,0,1,30.375,0Z" transform="translate(0 21.938)" fill="#5ae6c7"/>
</svg>
