<svg id="storybook" xmlns="http://www.w3.org/2000/svg" width="21.789" height="27.147" viewBox="0 0 21.789 27.147">
  <g id="storybook-icon_default" data-name="storybook-icon/default" transform="translate(0 0)">
    <path id="Exclusion_2" data-name="Exclusion 2" d="M20.424,27.147l-.061,0L2.144,26.328a1.373,1.373,0,0,1-1.3-1.313L0,2.608A1.356,1.356,0,0,1,1.279,1.194L16.217.26,16.09,3.337a.2.2,0,0,0,.041.131.2.2,0,0,0,.285.04l1.2-.907,1.009.8a.2.2,0,0,0,.125.043h.008a.2.2,0,0,0,.2-.21L18.84.1,20.339,0c.03,0,.059,0,.085,0a1.367,1.367,0,0,1,1.362,1.28c0,.033,0,.06,0,.085V25.782A1.367,1.367,0,0,1,20.424,27.147ZM7.6,15.772c-.911,0-1.906.093-1.968.356a5.516,5.516,0,0,0,1.184,4.3A6.025,6.025,0,0,0,11.406,22c3.414,0,5.619-1.852,5.619-4.719,0-3.171-2.408-4.447-4.343-5.472-1.375-.729-2.562-1.358-2.562-2.464a1.131,1.131,0,0,1,1.285-1.23,1.171,1.171,0,0,1,.9.317,2.467,2.467,0,0,1,.431,1.8c0,.193.488.3,1.338.3a7.314,7.314,0,0,0,2.719-.4,5.611,5.611,0,0,0-1.4-4.111,5.558,5.558,0,0,0-4.094-1.4c-3.419,0-5.544,1.848-5.544,4.824,0,2.9,2.212,4.141,4.163,5.237,1.417.8,2.641,1.482,2.641,2.651a1.091,1.091,0,0,1-1.21,1.23,1.337,1.337,0,0,1-1.019-.337,2.922,2.922,0,0,1-.442-2.1C9.895,15.908,8.706,15.772,7.6,15.772ZM16.217.26h0l0-.054L18.837,0l0,.1L16.218.26Z" transform="translate(0 0)" fill="#5ae6c7"/>
  </g>
</svg>
