<svg xmlns="http://www.w3.org/2000/svg" width="32.5" height="22.75" viewBox="0 0 32.5 22.75">
  <path id="team" d="M3.656-18.281A2.844,2.844,0,0,1,6.5-21.125a2.845,2.845,0,0,1,2.844,2.844A2.846,2.846,0,0,1,6.5-15.437,2.845,2.845,0,0,1,3.656-18.281ZM6.5-17.062a1.216,1.216,0,0,0,1.219-1.219A1.217,1.217,0,0,0,6.5-19.5a1.217,1.217,0,0,0-1.219,1.219A1.216,1.216,0,0,0,6.5-17.062ZM0-8.531a5.282,5.282,0,0,1,5.281-5.281H7.719a5.244,5.244,0,0,1,1.92.361A.81.81,0,0,1,10.1-12.4a.81.81,0,0,1-1.051.462,3.6,3.6,0,0,0-1.33-.249H5.281a3.586,3.586,0,0,0-.406.02V-1.625h3.25V-3.25a.815.815,0,0,1,.813-.812.815.815,0,0,1,.813.813v2.031A1.216,1.216,0,0,1,8.531,0H4.469A1.217,1.217,0,0,1,3.25-1.219V-3.656A5.277,5.277,0,0,1,0-8.531H0ZM3.25-5.489v-6.084A3.651,3.651,0,0,0,1.625-8.531,3.719,3.719,0,0,0,3.25-5.489ZM26-15.437a2.846,2.846,0,0,1-2.844-2.844A2.845,2.845,0,0,1,26-21.125a2.845,2.845,0,0,1,2.844,2.844A2.846,2.846,0,0,1,26-15.437Zm1.219-2.844A1.217,1.217,0,0,0,26-19.5a1.217,1.217,0,0,0-1.219,1.219A1.216,1.216,0,0,0,26-17.062,1.216,1.216,0,0,0,27.219-18.281ZM29.25-3.656v2.438A1.216,1.216,0,0,1,28.031,0H23.969A1.216,1.216,0,0,1,22.75-1.219V-3.25a.815.815,0,0,1,.813-.812.815.815,0,0,1,.813.813v1.625h3.25V-12.167a3.568,3.568,0,0,0-.406-.02H24.781a3.6,3.6,0,0,0-1.33.249A.81.81,0,0,1,22.4-12.4a.778.778,0,0,1,.462-1.051,5.275,5.275,0,0,1,1.92-.406h2.438A5.313,5.313,0,0,1,32.5-8.577,5.29,5.29,0,0,1,29.25-3.656Zm1.625-4.875a3.651,3.651,0,0,0-1.625-3.042v6.084A3.72,3.72,0,0,0,30.875-8.531ZM19.5-17.875a3.253,3.253,0,0,1-3.25,3.25A3.253,3.253,0,0,1,13-17.875a3.251,3.251,0,0,1,3.25-3.25A3.251,3.251,0,0,1,19.5-17.875ZM16.25-19.5a1.624,1.624,0,0,0-1.625,1.625A1.623,1.623,0,0,0,16.25-16.25a1.623,1.623,0,0,0,1.625-1.625A1.624,1.624,0,0,0,16.25-19.5Zm.813,6.5a5.284,5.284,0,0,1,5.281,5.281A5.285,5.285,0,0,1,19.5-3.032V.406a1.216,1.216,0,0,1-1.219,1.219H14.219A1.216,1.216,0,0,1,13,.406V-3.032a5.285,5.285,0,0,1-2.844-4.687A5.284,5.284,0,0,1,15.438-13ZM11.781-7.719A3.66,3.66,0,0,0,13-4.992v-5.454A3.66,3.66,0,0,0,11.781-7.719ZM17.875,0V-11.284a3.558,3.558,0,0,0-.812-.091H15.438a3.558,3.558,0,0,0-.812.091V0Zm2.844-7.719A3.66,3.66,0,0,0,19.5-10.446v5.454A3.66,3.66,0,0,0,20.719-7.719Z" transform="translate(0 21.125)" fill="#5ae6c7"/>
</svg>
