<svg width="28" height="20" viewBox="0 0 28 20" fill="none" xmlns="http://www.w3.org/2000/svg">
<path d="M8.05 2.5C8.05 3.88393 6.9125 5 5.6 5C4.24375 5 3.15 3.88393 3.15 2.5C3.15 1.16071 4.24375 0 5.6 0C6.9125 0 8.05 1.16071 8.05 2.5ZM9.1 7.36607C7.7875 8.52679 7 10.2679 7 12.1429C7 13.7054 7.48125 15.0893 8.4 16.2054V17.1429C8.4 17.9464 7.74375 18.5714 7 18.5714H4.2C3.4125 18.5714 2.8 17.9464 2.8 17.1429V15.9821C1.1375 15.1786 0 13.4375 0 11.4286C0 8.70536 2.1875 6.42857 4.9 6.42857H6.3C7.30625 6.42857 8.3125 6.78571 9.1 7.36607ZM2.8 9.55357C2.3625 10.0446 2.1 10.7143 2.1 11.4286C2.1 12.1875 2.3625 12.8571 2.8 13.3482V9.55357ZM19.6 17.1429V16.2054C20.475 15.0893 21 13.7054 21 12.1429C21 10.2679 20.1688 8.52679 18.8563 7.36607C19.6438 6.78571 20.65 6.42857 21.7 6.42857H23.1C25.7688 6.42857 28 8.70536 28 11.4286C28 13.4375 26.8188 15.1786 25.2 15.9821V17.1429C25.2 17.9464 24.5438 18.5714 23.8 18.5714H21C20.2125 18.5714 19.6 17.9464 19.6 17.1429ZM25.2 13.3482C25.5938 12.8571 25.9 12.1875 25.9 11.4286C25.9 10.7143 25.5938 10.0446 25.2 9.55357V13.3482ZM24.85 2.5C24.85 3.88393 23.7125 5 22.4 5C21.0438 5 19.95 3.88393 19.95 2.5C19.95 1.16071 21.0438 0 22.4 0C23.7125 0 24.85 1.16071 24.85 2.5ZM11.2 2.85714C11.2 1.29464 12.425 0 14 0C15.5313 0 16.8 1.29464 16.8 2.85714C16.8 4.46429 15.5313 5.71429 14 5.71429C12.425 5.71429 11.2 4.46429 11.2 2.85714ZM19.6 12.1429C19.6 14.1518 18.4188 15.8929 16.8 16.6964V18.5714C16.8 19.375 16.1438 20 15.4 20H12.6C11.8125 20 11.2 19.375 11.2 18.5714V16.6964C9.5375 15.8929 8.4 14.1518 8.4 12.1429C8.4 9.41964 10.5875 7.14286 13.3 7.14286H14.7C17.3688 7.14286 19.6 9.41964 19.6 12.1429ZM11.2 14.0625V10.2679C10.7625 10.7589 10.5 11.4286 10.5 12.1429C10.5 12.9018 10.7625 13.5714 11.2 14.0625ZM16.8 10.2679V14.0625C17.1938 13.5268 17.5 12.9018 17.5 12.1429C17.5 11.4286 17.1938 10.7589 16.8 10.2679Z" fill="#5AE6C7"/>
</svg>
