<svg xmlns="http://www.w3.org/2000/svg" width="23.027" height="23.027" viewBox="0 0 23.027 23.027">
  <g id="telegram" transform="translate(1 1)">
    <path id="Oval" d="M10.513,0A10.513,10.513,0,1,1,0,10.513,10.513,10.513,0,0,1,10.513,0Z" transform="translate(0 0)" fill="none" stroke="#ccd6f6" stroke-width="2"/>
    <path id="Path-3" d="M46.152,76.279q4.6-2,6.128-2.644C55.2,72.419,55.808,72.209,56.2,72.2a.7.7,0,0,1,.411.123.463.463,0,0,1,.149.289,1.513,1.513,0,0,1,.018.411c-.158,1.663-.84,5.7-1.191,7.555-.149.788-.438,1.05-.718,1.077-.613.053-1.077-.4-1.663-.788-.928-.6-1.444-.98-2.346-1.576-1.042-.683-.368-1.059.228-1.672.158-.158,2.845-2.609,2.9-2.827a.208.208,0,0,0-.053-.184.241.241,0,0,0-.219-.018c-.1.018-1.567,1-4.429,2.933a1.972,1.972,0,0,1-1.138.42,7.577,7.577,0,0,1-1.637-.385c-.657-.21-1.182-.324-1.138-.692C45.4,76.673,45.662,76.481,46.152,76.279Z" transform="translate(-41.399 -65.88)" fill="#ccd6f6" fill-rule="evenodd"/>
  </g>
</svg>
