<svg xmlns="http://www.w3.org/2000/svg" width="27" height="27.001" viewBox="0 0 27 27.001">
  <path id="troubleshotting" d="M13.5,1.688A11.813,11.813,0,0,0,25.313-10.125,11.813,11.813,0,0,0,13.5-21.937,11.813,11.813,0,0,0,1.688-10.125,11.961,11.961,0,0,0,1.8-8.511l-.507.19a2.483,2.483,0,0,0-1.052.733A13.619,13.619,0,0,1,0-10.125a13.5,13.5,0,0,1,13.5-13.5A13.5,13.5,0,0,1,27-10.125a13.5,13.5,0,0,1-13.5,13.5,13.43,13.43,0,0,1-2.537-.237A3.009,3.009,0,0,0,11.7,2.088l.19-.512A11.626,11.626,0,0,0,13.5,1.688Zm.211-5.068a6.748,6.748,0,0,0,6.539-6.745,6.749,6.749,0,0,0-6.75-6.75,6.74,6.74,0,0,0-6.745,6.492l-1.683.664c-.006-.132-.057-.269-.057-.454a8.5,8.5,0,0,1,8.438-8.437,8.476,8.476,0,0,1,8.485,8.438,8.456,8.456,0,0,1-8.485,8.485c-.09,0-.227-.005-.359-.011ZM10.114,1.5a.747.747,0,0,1-.775.506.75.75,0,0,1-.8-.475l-1.608-3.9L1.44,3.127A.843.843,0,0,1,.247,1.935l5.5-5.495-3.9-1.656a.74.74,0,0,1-.523-.749.844.844,0,0,1,.552-.775L13.21-10.963a.967.967,0,0,1,.886.243.838.838,0,0,1,.2.886L10.114,1.5Zm-2.1-5.685L9.234-1.113l2.842-7.636L4.486-5.906,7.557-4.641a.85.85,0,0,1,.459.459Z" transform="translate(0 23.625)" fill="#5ae6c7"/>
</svg>
