<svg width="16" height="25" viewBox="0 0 16 25" fill="none" xmlns="http://www.w3.org/2000/svg">
<path d="M12.8153 1.2207C13.0648 0.390625 13.9131 -0.146484 14.7614 0.0488281C15.6097 0.292969 16.1585 1.12305 15.9589 1.95312L15.5099 3.66211C14.961 5.81055 13.5139 7.56836 11.6177 8.54492V23.4375C11.6177 24.3164 10.8692 25 10.0209 25C9.12274 25 8.42414 24.3164 8.42414 23.4375V17.1875H7.62575V23.4375C7.62575 24.3164 6.87726 25 6.02898 25C5.13079 25 4.4322 24.3164 4.4322 23.4375V8.54492C2.48612 7.56836 1.03904 5.81055 0.490148 3.66211L0.0410535 1.95312C-0.158544 1.12305 0.390349 0.292969 1.23864 0.0488281C2.08693 -0.146484 2.93522 0.390625 3.18471 1.2207L3.58391 2.92969C4.0829 4.88281 5.92918 6.25 8.02495 6.25C10.0708 6.25 11.9171 4.88281 12.4161 2.92969L12.8153 1.2207ZM5.62978 2.34375C5.62978 1.07422 6.67767 0 8.02495 0C9.32233 0 10.4201 1.07422 10.4201 2.34375C10.4201 3.66211 9.32233 4.6875 8.02495 4.6875C6.67767 4.6875 5.62978 3.66211 5.62978 2.34375Z" fill="#5AE6C7"/>
</svg>
