<svg xmlns="http://www.w3.org/2000/svg" width="28.639" height="28.317" viewBox="0 0 28.639 28.317">
  <path id="ts" d="M1.074,0H27.565a1.068,1.068,0,0,1,1.074,1.062V27.255a1.068,1.068,0,0,1-1.074,1.062H1.074A1.068,1.068,0,0,1,0,27.255V1.062A1.068,1.068,0,0,1,1.074,0ZM15.92,15.065V12.743H5.728v2.322H9.367V25.406h2.9V15.065Zm1.155,10.068a6.163,6.163,0,0,0,1.657.53,11.1,11.1,0,0,0,2.017.177,9.582,9.582,0,0,0,1.963-.194,4.858,4.858,0,0,0,1.63-.64,3.285,3.285,0,0,0,1.109-1.166,4.044,4.044,0,0,0,.175-3.126,3.14,3.14,0,0,0-.674-1.029,4.92,4.92,0,0,0-1.056-.808A11.4,11.4,0,0,0,22.51,18.2q-.566-.23-1.015-.446a5.162,5.162,0,0,1-.764-.442,1.941,1.941,0,0,1-.485-.477.991.991,0,0,1-.171-.57.94.94,0,0,1,.153-.525,1.308,1.308,0,0,1,.431-.4,2.329,2.329,0,0,1,.683-.261,4.028,4.028,0,0,1,.9-.093,5.793,5.793,0,0,1,.759.053,6.108,6.108,0,0,1,.8.163,5.641,5.641,0,0,1,.786.278,4.359,4.359,0,0,1,.705.388v-2.64a7.1,7.1,0,0,0-1.433-.366,11.864,11.864,0,0,0-1.783-.119,8.419,8.419,0,0,0-1.94.216,4.979,4.979,0,0,0-1.613.676,3.254,3.254,0,0,0-1.5,2.87,3.261,3.261,0,0,0,.741,2.155,5.642,5.642,0,0,0,2.25,1.51q.593.239,1.105.468a6.183,6.183,0,0,1,.885.477,2.306,2.306,0,0,1,.588.539,1.085,1.085,0,0,1,.216.662,1,1,0,0,1-.135.508,1.184,1.184,0,0,1-.409.406,2.261,2.261,0,0,1-.683.269,4.17,4.17,0,0,1-.957.1,5.577,5.577,0,0,1-3.548-1.289Z" fill="#5ae6c7" fill-rule="evenodd"/>
</svg>
