<svg xmlns="http://www.w3.org/2000/svg" width="28.639" height="32.401" viewBox="0 0 28.639 32.401">
  <g id="webpack" transform="translate(0 0)">
    <path id="Exclusion_3" data-name="Exclusion 3" d="M14.319,32.4h0L0,24.3V8.1L14.32,0l14.32,8.1V24.3L14.32,32.4ZM6.764,21.286h0L2.512,23.743,13.8,30.13V25.157L6.764,21.286Zm15.064,0h0l-7.034,3.871V30.13l11.289-6.386-4.255-2.457ZM6.86,12.646h0v7.56L13.8,24.024v-7.37L6.86,12.646Zm14.874,0h0l-6.941,4.008v7.37l6.941-3.815V12.646ZM26.856,9.69h0l-4.129,2.386v8.584l4.129,2.383V9.69Zm-25.117,0h0V23.044l4.13-2.383V12.077L1.739,9.69ZM14.3,7.944h0L7.33,11.774,14.3,15.8l6.967-4.022L14.3,7.944Zm-.5-5.669h0L2.224,8.824l4.1,2.372.059-.034L13.8,7.082V2.275Zm.991,0h0V7.082l7.419,4.077.059.034,4.1-2.368L14.793,2.275Z" transform="translate(0 0)" fill="#5ae6c7"/>
    <path id="Path_10969" data-name="Path 10969" d="M192.341,230.781l-6.941-3.818V219.4l6.941,4.007Zm.992,0,6.941-3.815V219.4l-6.941,4.007ZM185.87,218.53l6.967-3.83,6.967,3.83-6.967,4.022Z" transform="translate(-178.54 -206.756)" fill="#19c59f"/>
  </g>
</svg>
