<svg width="28" height="21" viewBox="0 0 28 21" fill="none" xmlns="http://www.w3.org/2000/svg">
<path d="M21.0481 15.7381H24.5241V7.43639L20.6079 3.5411L18.15 5.98594L21.0481 8.86867V15.738V15.7381ZM24.5333 17.4713H12.4088L9.51059 14.5887L10.7396 13.3662L13.1333 15.7472H18.0583L13.2067 10.9123L14.4448 9.68072L19.2964 14.5066V9.60761L16.9119 7.23577L18.1316 6.02238L12.1062 0.00146484H0L3.46675 3.44982V3.45896H10.6571L13.1975 5.98594L9.48314 9.68061L6.94269 7.15363V5.19228H3.46675V8.58591L9.48314 14.5704L7.03434 17.0061L10.9505 20.9015H28L24.5333 17.4713Z" fill="#5AE6C7"/>
</svg>
