<svg xmlns="http://www.w3.org/2000/svg" width="29" height="28" viewBox="0 0 29 28">
  <g id="xd" transform="translate(-72 -63)">
    <path id="Path_11018" data-name="Path 11018" d="M23.865,28H5.135A5.143,5.143,0,0,1,1.5,26.512a5.047,5.047,0,0,1-1.5-3.6V5.085a5.046,5.046,0,0,1,1.5-3.6A5.143,5.143,0,0,1,5.135,0H23.865A5.143,5.143,0,0,1,27.5,1.489a5.044,5.044,0,0,1,1.5,3.6V22.915a5.045,5.045,0,0,1-1.5,3.6A5.142,5.142,0,0,1,23.865,28ZM21.388,10.016a6.192,6.192,0,0,0-3.057.694,4.986,4.986,0,0,0-1.921,1.855,4.876,4.876,0,0,0-.665,2.525,5.166,5.166,0,0,0,.665,2.728,4.184,4.184,0,0,0,1.825,1.627,6.073,6.073,0,0,0,2.514.539h.084a10.7,10.7,0,0,0,1.861-.167,9.312,9.312,0,0,0,1.97-.574.194.194,0,0,0,.121-.191c0-.031,0-.063-.006-.1-.01-.181-.022-.386-.043-.6l0-.073h0c-.011-.231-.021-.449-.021-.644V6.222a.112.112,0,0,0-.1-.086l-.019,0H22.137c-.081,0-.121.043-.121.132v3.781c-.067-.005-.127-.008-.186-.011h0c-.066,0-.129-.006-.188-.013A2.217,2.217,0,0,0,21.388,10.016ZM4.447,7.18a.142.142,0,0,0-.121.048c-.023.023-.014.07.024.12l3.661,6.138-3.758,6.1a.165.165,0,0,0-.024.132c0,.034.012.041.029.041l.022,0h0l.032,0H6.972c.127,0,.229-.01.278-.131.187-.33.376-.674.558-1.007l.276-.5c.269-.509.561-1.048.818-1.524l0-.008,0-.007c.272-.5.553-1.025.806-1.537h.024c.287.522.58,1.04.862,1.542l0,.006,0,.007c.252.447.547.976.822,1.508.126.251.258.5.385.746v0l0,0c.127.243.258.494.384.743.086.122.225.132.411.132h2.767l.033,0,.036,0h0l.025,0a.031.031,0,0,0,.035-.026.2.2,0,0,0-.024-.144l-3.867-6.282,3.625-5.923a.169.169,0,0,0,.032-.046c.008-.018.01-.032,0-.037a.109.109,0,0,0-.11-.086l-.023,0H12.6a.234.234,0,0,0-.046,0,.245.245,0,0,0-.111.029.2.2,0,0,0-.073.12c-.108.2-.219.407-.325.608v0c-.156.294-.318.6-.483.9l-.012.022,0,0c-.268.485-.546.987-.807,1.481-.318.6-.567,1.091-.786,1.543H9.932c-.266-.54-.531-1.037-.81-1.52-.246-.409-.471-.81-.71-1.235h0l-.159-.283c-.336-.623-.575-1.1-.773-1.544A.338.338,0,0,0,7.359,7.2.7.7,0,0,0,7.19,7.18ZM21.073,17.674a3.192,3.192,0,0,1-1-.156,2.081,2.081,0,0,1-.822-.479,2.338,2.338,0,0,1-.544-.85,3.291,3.291,0,0,1-.205-1.232,2.627,2.627,0,0,1,.4-1.52,2.682,2.682,0,0,1,1.027-.885,2.977,2.977,0,0,1,1.365-.311c.132,0,.267.012.4.024h0a3.136,3.136,0,0,1,.326.06h0V17.59a1.1,1.1,0,0,1-.356.063c-.026,0-.052,0-.079,0C21.415,17.662,21.252,17.674,21.073,17.674Z" transform="translate(72 63)" fill="#5ae6c7"/>
  </g>
</svg>
