<svg xmlns="http://www.w3.org/2000/svg" width="36.988" height="21.517" viewBox="0 0 36.988 21.517">
  <g id="yarn" transform="translate(-76.246 -18.942)">
    <path id="Path_10970" data-name="Path 10970" d="M581.685,169.4a10.056,10.056,0,0,1-2.236,4.039v-8.917a1.22,1.22,0,0,0-1.372-1.118c-.356,0-.661.178-.661.432a5.467,5.467,0,0,1,.1.813v4.09c-.3,1.778-1.067,3.43-2.083,3.43-.737,0-1.169-.737-1.169-2.109a18.409,18.409,0,0,1,.737-5.132c.1-.381.838-1.4-.406-1.4-1.346,0-1.169.508-1.346.94a24.811,24.811,0,0,0-.851,5.716c0,2.21.927,3.658,2.629,3.658a2.99,2.99,0,0,0,2.49-1.753v3.226c-1.677,1.473-3.15,2.769-3.15,5.335a2.655,2.655,0,0,0,2.439,2.921c1.3,0,2.642-.94,2.642-3.607v-4.395a11.024,11.024,0,0,0,3.709-5.64,1.17,1.17,0,0,0,.025-.254,1.118,1.118,0,0,0-.889-1.042C582.041,168.633,581.837,168.862,581.685,169.4Zm-4.878,12.575c-.406,0-.661-.61-.661-1.4a4.436,4.436,0,0,1,1.372-3.328v2.718C577.519,180.446,577.62,181.97,576.807,181.97Z" transform="translate(-496.154 -143.112)" fill="#5ae6c7"/>
    <path id="Path_10971" data-name="Path 10971" d="M721.021,168.393c-.61,0-.864-.61-.864-1.169v-4.192a1.22,1.22,0,0,0-1.372-1.118c-.356,0-.661.178-.661.432a5.473,5.473,0,0,1,.1.813v3.912c-.279.711-.737,1.321-1.423,1.321-.889,0-1.448-.762-1.448-2.083,0-3.658,2.261-5.309,4.192-5.309.254,0,.508.051.737.051.254,0,.33-.152.33-.584a1.056,1.056,0,0,0-1.169-1.067c-3.1,0-6.046,2.591-6.046,6.834,0,2.159,1.042,3.836,3.023,3.836a2.826,2.826,0,0,0,2.185-1.042,2.247,2.247,0,0,0,1.956,1.042c2.185,0,3.2-2.286,3.633-3.963a.671.671,0,0,0,.025-.178,1.118,1.118,0,0,0-.889-1.042c-.254,0-.508.229-.61.762C722.495,166.767,722.037,168.393,721.021,168.393Z" transform="translate(-628.199 -139.366)" fill="#5ae6c7"/>
    <path id="Path_10972" data-name="Path 10972" d="M856.1,153.962c2.185,0,3.176-2.286,3.633-3.963,0-.051.025-.1.025-.178a1.118,1.118,0,0,0-.889-1.042c-.254,0-.508.229-.61.762-.229,1.118-.661,2.744-1.829,2.744-.686,0-1.016-.661-1.016-1.372a25.516,25.516,0,0,1,1.143-5.843c.1-.584-.915-1.423-1.219-1.423h-1.321a9.47,9.47,0,0,1-1.346-.1,1.609,1.609,0,0,0-1.6-1.346,1.2,1.2,0,0,0-1.27,1.169,1.867,1.867,0,0,0,1.092,1.626,23.6,23.6,0,0,1-.406,4.42c-.229.864,1.092,1.778,1.423.711a20.356,20.356,0,0,0,.635-4.674h2.21a16.477,16.477,0,0,0-1.27,5.614C853.484,153.3,854.906,153.962,856.1,153.962Z" transform="translate(-755.936 -123.258)" fill="#5ae6c7"/>
    <path id="Path_10973" data-name="Path 10973" d="M131.042,30.785a1.067,1.067,0,0,0,1.219,1.118c.737,0,.711-.61.711-1.092V27.1c.178-2.007,1.753-4.192,2.49-4.192.483,0,.533.661.533,1.448v5.157A2.181,2.181,0,0,0,138.13,31.9c2.185,0,3.264-2.286,3.7-3.963a.67.67,0,0,0,.025-.178,1.118,1.118,0,0,0-.889-1.042c-.254,0-.508.229-.61.762-.229,1.118-.749,2.744-1.766,2.744-.661,0-.661-.94-.661-1.169V23.8c0-1.169-.406-2.566-2.109-2.566-1.245,0-2.159,1.092-2.845,2.515V22.6a1.22,1.22,0,0,0-1.372-1.118c-.356,0-.661.178-.661.432a5.471,5.471,0,0,1,.1.813v8.053Z" transform="translate(-28.617 -1.199)" fill="#5ae6c7"/>
  </g>
</svg>
